<svg id="Ebene_1" data-name="Ebene 1" xmlns="http://www.w3.org/2000/svg" viewBox="0 0 1080 1080"><defs><style>.cls-1{fill:#dbbcdb;}.cls-2{fill:#e36252;}</style></defs><rect class="cls-1" width="1080" height="1080"/><path class="cls-2" d="M3.49,399.28l132.79,40.65c46.59,14.26,30-25.92,77.95-15.74l58.82,17.87,1.45-4.78L0,353.91v44.23C1.11,398.52,2.27,398.91,3.49,399.28Z" transform="translate(0 0.03)"/><path class="cls-2" d="M550.21,252l2.08-3.15C553.7,246.76,660.74,84.94,716.78,0H666c-.84,1.19-1.7,2.42-2.57,3.74l-10.87,16.4H549.23A30.86,30.86,0,0,0,523.39,34l-55.6,84.31C440.32,76.77,411.36,32.93,389.62,0h-6c55.9,84.76,163.07,246.79,164.48,248.92ZM526.27,38.72l1.28-1.95A25.89,25.89,0,0,1,549.23,25.1h100L571.58,142.24c-32.2,48.56,15,37.93-13.4,88.7l-8,12.05-58-87.63,36.26-53.87C549.08,71.55,512.42,69.25,526.27,38.72Z" transform="translate(0 0.03)"/><path class="cls-2" d="M782.13,96.22,851.45,166l3.54-3.52-38.78-39L846.53,76c21.22-32.12-21.25-32.05-.41-68.58l2.27-3.48A23,23,0,0,1,852.29,0h-7.13c-.26.31-.53.63-.78,1Z" transform="translate(0 0.03)"/><path class="cls-2" d="M1013.1,50.83c5.75,4.54,11.42,9.34,16.88,14.28a29.72,29.72,0,0,1,9.52,27c-1.41,7.88-2.86,15.9-4.33,24-11.77,33.2-37.66-.53-45.9,42.46L964.65,284.36c-8.54,44.53,34.09,19,26,70.29,0,.07,0,.15,0,.22-5.76,30.2-17.08,50.05-33.63,59-14.74,8-33.85,7.18-56.81-2.3-87.84-36.29-178.65-112.46-194.32-163-3.85-12.42-3.12-22.84,2.18-31l.08-.13c16.87-17.9,37.42,12.12,50.66-7.91l13.87-21.35-27-27.24,0-.06-.28-.19L742,157.3l-.67,1.15c-2.14,3.18-20.44,30.3-37.48,56.43-6.15,9.43-7.08,21.26-2.76,35.16,8,25.7,33.6,57.59,72.19,89.78,37.31,31.12,82.86,58.95,125,76.35,24.4,10.09,45,10.78,61.08,2.08,17.93-9.69,30.1-30.7,36.17-62.44,4.82-25.24,29.84-156.56,48.93-262.77a34.71,34.71,0,0,0-9.73-30.33c-.44-.45-.9-.88-1.36-1.3-5.54-5-11.3-9.89-17.13-14.5-26-20.6-53.63-36.7-79.35-46.94H922C953.48,10.41,987.05,30.22,1013.1,50.83Z" transform="translate(0 0.03)"/><path class="cls-2" d="M648.63,1054.81h0l-18-33.42-46,24.82c-19.7,10.63-15.28,21.84-15.13,33.76h43L651,1059.2Z" transform="translate(0 0.03)"/><path class="cls-2" d="M438.34,1080l23.53-55.23c17.36-40.73-21.46-31.59-10.19-71.87l66.38-155.78L193.3,972.43l2.37,4.39,39.42-21.28c44.13-20.28,35.25,23.75,80.68-.67l123.08-66.16c44.31-23.81.64-40.45,47.45-68.8l21.58-11.65L392.1,1080Z" transform="translate(0 0.03)"/><path class="cls-2" d="M240.29,42.11l55.48,80.47L165.26,210.39l2.78,4.14,130.57-87.84,19,27.49c27.55,40,40.25,1.53,67.51,32.38l6,8.67.23.29c.05.06,5.35,5.84,4.5,13.28-.61,5.38-4.33,10.41-11,14.93-10.69,7.19-65.9,32-120.47,55.93-22.33,7.74-25-30.78-44-22.41l-52,22.9c-18.91,8.33,4.65,34.59-10.7,45.62-6.62,2.83-10.55,4.49-10.83,4.61l1.95,4.6c8.83-3.75,216.32-91.93,238.88-107.11,8-5.37,12.43-11.6,13.22-18.51,1-9-4.67-16-5.67-17.09L262.88,0H237C232.23,11,224.75,19.59,240.29,42.11Z" transform="translate(0 0.03)"/><path class="cls-2" d="M70.24,149.91l0,.08,36.92,9.33,10.27-40.71C125.16,87.93,85.21,98.87,93,62.75c7-22.5,14.89-44,23.65-62.78H111Q86.15,54.27,65.56,148.89Z" transform="translate(0 0.03)"/><path class="cls-2" d="M955.55,1080C991.17,1021.51,1043,936.42,1080,875.78v-9.17c-37.66,61.77-93.07,152.69-130,213.36Z" transform="translate(0 0.03)"/><path class="cls-2" d="M903.27,1052.89,868,993C913.7,916.89,964.44,832.65,985.17,799l-4.07-2.5c-20.53,33.31-70.49,116.26-115.85,191.75l-27.19-46.22c-22.76-38.7-37.43-.93-63.67-36.91-2.2-3.8-3.87-6.73-4.92-8.63-10.66-19.26-20.35-28.81-30.51-30-13.29-1.63-24.73,10.76-39.21,26.42-3.87,4.18-7.86,8.48-12.1,12.76l-24.36-41.42c-32.93-56-42-6.62-79.18-62.89l-14.86-25.2-4.12,2.43L742.88,1080h20.51c3.74-14.08,14-21.79-7.27-57.93l-66-112.14c4.63-4.62,8.94-9.26,13.11-13.76,13.55-14.66,24.28-26.22,35.13-24.92,8.38,1,17.19,10,26.9,27.6,7.08,12.78,42,72.11,75.93,129.47-11.31,18.84-21.86,36.42-31,51.68h5.57c8.43-14.07,18-30,28.2-47,9.64,16.31,19.14,32.36,27.81,47h38.69C911.82,1073.56,910.65,1065.43,903.27,1052.89Z" transform="translate(0 0.03)"/><path class="cls-2" d="M1033.19,598.13,926.74,525.31c-38.66-26.45-34.89,19.7-79.34-8l-86.87-59.21L863.64,737.68l4.68-1.72h0L904,722.84l-16.19-44c-11.82-32.14-37.43-1-53-33.94L770.6,471,1080,681.89v-6L1068.42,668C1029.51,639.12,1073.22,625.51,1033.19,598.13Z" transform="translate(0 0.03)"/><path class="cls-2" d="M39.69,961.74v0l33.44-18.2-25-45.88c-14.9-27.38-30.76-8-48.18-18.47V898.8C34.72,962.62,35.51,964,35.53,964.07Z" transform="translate(0 0.03)"/><path class="cls-2" d="M59.2,619.81c1.44,2.64,3.86,7.12,7,13-5.35,6.44-34.15,41.82-57.86,85.49Q3.88,726.56,0,734.54v12.11c23.43-52,59.75-98,68.81-109.11,15.87,29.27,45.68,84.25,68.76,126.66,16.55,30.42,29.63,54.37,31.61,57.71,16.46,27.86,58.87,67.08,113.41,37.4,12.63-6.87,21.33-18.35,25.87-34.14,10.78-37.48-1.26-99-35.77-182.75a1184.66,1184.66,0,0,0-55-114.61l-4.35,2.45h0L0,646.34V652Zm81.14,139,31.92,58.38C168.12,809.85,155.57,786.85,140.34,758.85Zm-35-164.13c42.14-21.47,34.09,21.56,74.8-.6L232,565.88c31.57,62.88,90.29,193,71.63,257.91-4.15,14.46-12.05,24.93-23.46,31.14-24,13.08-47.47,13.44-69.66,1.08-16.94-9.43-30.25-25.1-37.07-36.63l-.14-.25c-17.9-35.14,21.1-30.15,2.76-63.86l-48.35-88.84c-16.91-31.09-32.94.32-53.17-28.74-5.19-9.57-9.07-16.73-11-20.27Z" transform="translate(0 0.03)"/></svg>