<?xml version="1.0" encoding="utf-8"?>
<!-- Generator: Adobe Illustrator 25.0.0, SVG Export Plug-In . SVG Version: 6.00 Build 0)  -->
<svg version="1.1" id="Ebene_1" xmlns="http://www.w3.org/2000/svg" xmlns:xlink="http://www.w3.org/1999/xlink" x="0px" y="0px"
	 viewBox="0 0 2000 1000" style="enable-background:new 0 0 2000 1000;" xml:space="preserve">
<style type="text/css">
	.st0{fill:#013059;}
	.st1{fill:#F07A6D;}
	.st2{fill:#B8CC52;}
	.st3{fill:#FFFFFF;}
</style>
<rect x="0.1" y="-0.2" class="st0" width="1999.8" height="1000.6"/>
<g transform="matrix(2,0,0,2,0,0) translate(147,231) rotate(-167.71) translate(-4.5,-15.75)">
	<path class="st1" d="M-865.1-38.9l-4.1-4.1l0-20.7h8.3v20.7L-865.1-38.9z"/>
</g>
<g transform="matrix(2,0,0,2,0,0) translate(189,231) rotate(-159.5066) translate(-4.5,-15.75)">
	<path class="st1" d="M-790.6,57.6l-4.1-4.1V32.8l8.3,0v20.7L-790.6,57.6z"/>
</g>
<g transform="matrix(2,0,0,2,0,0) translate(231,231) rotate(-151.4834) translate(-4.5,-15.75)">
	<path class="st1" d="M-708.1,129.9l-4.1-4.1V105h8.3v20.7L-708.1,129.9z"/>
</g>
<g transform="matrix(2,0,0,2,0,0) translate(273,231) rotate(-143.7031) translate(-4.5,-15.75)">
	<path class="st1" d="M-623.1,177.7l-4.1-4.1v-20.7h8.3v20.7L-623.1,177.7z"/>
</g>
<g transform="matrix(2,0,0,2,0,0) translate(315,231) rotate(-136.2189) translate(-4.5,-15.75)">
	<path class="st1" d="M-540.4,202.4l-4.1-4.1v-20.7h8.3v20.7L-540.4,202.4z"/>
</g>
<g transform="matrix(2,0,0,2,0,0) translate(357,231) rotate(-129.0726) translate(-4.5,-15.75)">
	<path class="st1" d="M-463.9,206.2l-4.1-4.1v-20.7l8.3,0v20.7L-463.9,206.2z"/>
</g>
<g transform="matrix(2,0,0,2,0,0) translate(399,231) rotate(-122.2942) translate(-4.5,-15.75)">
	<path class="st1" d="M-396.8,192.2l-4.1-4.1v-20.7h8.3V188L-396.8,192.2z"/>
</g>
<g transform="matrix(2,0,0,2,0,0) translate(441,231) rotate(-115.9016) translate(-4.5,-15.75)">
	<path class="st1" d="M-341,163.3l-4.1-4.1v-20.7h8.3v20.7L-341,163.3z"/>
</g>
<g transform="matrix(2,0,0,2,0,0) translate(483,231) rotate(-109.9017) translate(-4.5,-15.75)">
	<path class="st1" d="M-297.8,122.9l-4.1-4.1V98.1h8.3l0,20.7L-297.8,122.9z"/>
</g>
<g transform="matrix(2,0,0,2,0,0) translate(525,231) rotate(-104.2922) translate(-4.5,-15.75)">
	<path class="st1" d="M-267.4,73.9l-4.1-4.1l0-20.7h8.3v20.7L-267.4,73.9z"/>
</g>
<g transform="matrix(2,0,0,2,0,0) translate(567,231) rotate(-99.0633) translate(-4.5,-15.75)">
	<path class="st1" d="M-249.6,18.8l-4.1-4.1V-6l8.3,0v20.7L-249.6,18.8z"/>
</g>
<g transform="matrix(2,0,0,2,0,0) translate(609,231) rotate(-94.1996) translate(-4.5,-15.75)">
	<path class="st1" d="M-243.7-40l-4.1-4.1v-20.7h8.3v20.7L-243.7-40z"/>
</g>
<g transform="matrix(2,0,0,2,0,0) translate(651,231) rotate(-89.682) translate(-4.5,-15.75)">
	<path class="st1" d="M-248.9-100.8l-4.1-4.1v-20.7h8.3v20.7L-248.9-100.8z"/>
</g>
<g transform="matrix(2,0,0,2,0,0) translate(693,231) rotate(-85.4891) translate(-4.5,-15.75)">
	<path class="st1" d="M-264.2-162.3l-4.1-4.1v-20.7h8.3v20.7L-264.2-162.3z"/>
</g>
<g transform="matrix(2,0,0,2,0,0) translate(735,231) rotate(-81.5986) translate(-4.5,-15.75)">
	<path class="st1" d="M-288.4-223.4l-4.1-4.1v-20.7h8.3v20.7L-288.4-223.4z"/>
</g>
<g transform="matrix(2,0,0,2,0,0) translate(777,231) rotate(-77.988) translate(-4.5,-15.75)">
	<path class="st1" d="M-320.6-283.3l-4.1-4.1v-20.7h8.3v20.7L-320.6-283.3z"/>
</g>
<g transform="matrix(2,0,0,2,0,0) translate(819,231) rotate(-74.6356) translate(-4.5,-15.75)">
	<path class="st1" d="M-359.7-341.5l-4.1-4.1v-20.7h8.3v20.7L-359.7-341.5z"/>
</g>
<g transform="matrix(2,0,0,2,0,0) translate(861,231) rotate(-71.5202) translate(-4.5,-15.75)">
	<path class="st1" d="M-404.9-397.6l-4.1-4.1v-20.7h8.3v20.7L-404.9-397.6z"/>
</g>
<g transform="matrix(2,0,0,2,0,0) translate(903,231) rotate(-68.6223) translate(-4.5,-15.75)">
	<path class="st1" d="M-455.4-451.5l-4.1-4.1v-20.7h8.3v20.7L-455.4-451.5z"/>
</g>
<g transform="matrix(2,0,0,2,0,0) translate(945,231) rotate(-65.9235) translate(-4.5,-15.75)">
	<path class="st1" d="M-510.5-502.9l-4.1-4.1v-20.7h8.3v20.7L-510.5-502.9z"/>
</g>
<g transform="matrix(2,0,0,2,0,0) translate(987,231) rotate(-63.407) translate(-4.5,-15.75)">
	<path class="st1" d="M-569.5-551.8l-4.1-4.1v-20.7h8.3v20.7L-569.5-551.8z"/>
</g>
<g transform="matrix(2,0,0,2,0,0) translate(1029,231) rotate(-61.0574) translate(-4.5,-15.75)">
	<path class="st1" d="M-631.9-598.4l-4.1-4.1v-20.7h8.3v20.7L-631.9-598.4z"/>
</g>
<g transform="matrix(2,0,0,2,0,0) translate(1071,231) rotate(-58.8604) translate(-4.5,-15.75)">
	<path class="st1" d="M-697.2-642.5l-4.1-4.1v-20.7h8.3v20.7L-697.2-642.5z"/>
</g>
<g transform="matrix(2,0,0,2,0,0) translate(1113,231) rotate(-56.8032) translate(-4.5,-15.75)">
	<path class="st1" d="M-765-684.4l-4.1-4.1v-20.7h8.3v20.7L-765-684.4z"/>
</g>
<g transform="matrix(2,0,0,2,0,0) translate(1155,231) rotate(-54.8743) translate(-4.5,-15.75)">
	<path class="st1" d="M-835-724l-4.1-4.1v-20.7h8.3v20.7L-835-724z"/>
</g>
<g transform="matrix(2,0,0,2,0,0) translate(1197,231) rotate(-53.0629) translate(-4.5,-15.75)">
	<path class="st1" d="M-906.9-761.5l-4.1-4.1v-20.7h8.3v20.7L-906.9-761.5z"/>
</g>
<g transform="matrix(2,0,0,2,0,0) translate(147,273) rotate(-166.8025) translate(-4.5,-15.75)">
	<path class="st1" d="M-847.7,53.3l-4.1-4.1V28.5l8.3,0v20.7L-847.7,53.3z"/>
</g>
<g transform="matrix(2,0,0,2,0,0) translate(189,273) rotate(-158.0091) translate(-4.5,-15.75)">
	<path class="st1" d="M-759.4,153.2l-4.1-4.1v-20.7h8.3V149L-759.4,153.2z"/>
</g>
<g transform="matrix(2,0,0,2,0,0) translate(231,273) rotate(-149.4325) translate(-4.5,-15.75)">
	<path class="st1" d="M-663.1,224.7l-4.1-4.1v-20.7h8.3l0,20.7L-663.1,224.7z"/>
</g>
<g transform="matrix(2,0,0,2,0,0) translate(273,273) rotate(-141.1474) translate(-4.5,-15.75)">
	<path class="st1" d="M-565.3,268.3l-4.1-4.1v-20.7h8.3v20.7L-565.3,268.3z"/>
</g>
<g transform="matrix(2,0,0,2,0,0) translate(315,273) rotate(-133.2161) translate(-4.5,-15.75)">
	<path class="st1" d="M-471.8,285.9l-4.1-4.1v-20.7h8.3v20.7L-471.8,285.9z"/>
</g>
<g transform="matrix(2,0,0,2,0,0) translate(357,273) rotate(-125.6865) translate(-4.5,-15.75)">
	<path class="st1" d="M-387.2,280.6l-4.1-4.1v-20.7h8.3l0,20.7L-387.2,280.6z"/>
</g>
<g transform="matrix(2,0,0,2,0,0) translate(399,273) rotate(-118.5904) translate(-4.5,-15.75)">
	<path class="st1" d="M-314.7,256.3l-4.1-4.1v-20.7h8.3v20.7L-314.7,256.3z"/>
</g>
<g transform="matrix(2,0,0,2,0,0) translate(441,273) rotate(-111.9446) translate(-4.5,-15.75)">
	<path class="st1" d="M-256.2,217l-4.1-4.1v-20.7h8.3v20.7L-256.2,217z"/>
</g>
<g transform="matrix(2,0,0,2,0,0) translate(483,273) rotate(-105.7522) translate(-4.5,-15.75)">
	<path class="st1" d="M-212.7,166.4l-4.1-4.1v-20.7h8.3v20.7L-212.7,166.4z"/>
</g>
<g transform="matrix(2,0,0,2,0,0) translate(525,273) rotate(-100.0048) translate(-4.5,-15.75)">
	<path class="st1" d="M-184,108.1l-4.1-4.1V83.2h8.3v20.7L-184,108.1z"/>
</g>
<g transform="matrix(2,0,0,2,0,0) translate(567,273) rotate(-94.6859) translate(-4.5,-15.75)">
	<path class="st1" d="M-169.3,44.9l-4.1-4.1V20l8.3,0v20.7L-169.3,44.9z"/>
</g>
<g transform="matrix(2,0,0,2,0,0) translate(609,273) rotate(-89.7727) translate(-4.5,-15.75)">
	<path class="st1" d="M-167.8-20.9l-4.1-4.1v-20.7h8.3v20.7L-167.8-20.9z"/>
</g>
<g transform="matrix(2,0,0,2,0,0) translate(651,273) rotate(-85.2392) translate(-4.5,-15.75)">
	<path class="st1" d="M-178-87.5l-4.1-4.1v-20.7h8.3l0,20.7L-178-87.5z"/>
</g>
<g transform="matrix(2,0,0,2,0,0) translate(693,273) rotate(-81.0578) translate(-4.5,-15.75)">
	<path class="st1" d="M-198.6-153.5l-4.1-4.1v-20.7h8.3v20.7L-198.6-153.5z"/>
</g>
<g transform="matrix(2,0,0,2,0,0) translate(735,273) rotate(-77.2003) translate(-4.5,-15.75)">
	<path class="st1" d="M-228.4-218.1l-4.1-4.1v-20.7h8.3l0,20.7L-228.4-218.1z"/>
</g>
<g transform="matrix(2,0,0,2,0,0) translate(777,273) rotate(-73.6394) translate(-4.5,-15.75)">
	<path class="st1" d="M-266-280.5l-4.1-4.1l0-20.7h8.3v20.7L-266-280.5z"/>
</g>
<g transform="matrix(2,0,0,2,0,0) translate(819,273) rotate(-70.3492) translate(-4.5,-15.75)">
	<path class="st1" d="M-310.5-340.4l-4.1-4.1v-20.7h8.3v20.7L-310.5-340.4z"/>
</g>
<g transform="matrix(2,0,0,2,0,0) translate(861,273) rotate(-67.3055) translate(-4.5,-15.75)">
	<path class="st1" d="M-360.9-397.5l-4.1-4.1v-20.7h8.3v20.7L-360.9-397.5z"/>
</g>
<g transform="matrix(2,0,0,2,0,0) translate(903,273) rotate(-64.4859) translate(-4.5,-15.75)">
	<path class="st1" d="M-416.2-451.8l-4.1-4.1v-20.7l8.3,0v20.7L-416.2-451.8z"/>
</g>
<g transform="matrix(2,0,0,2,0,0) translate(945,273) rotate(-61.8698) translate(-4.5,-15.75)">
	<path class="st1" d="M-475.8-503.1l-4.1-4.1V-528h8.3v20.7L-475.8-503.1z"/>
</g>
<g transform="matrix(2,0,0,2,0,0) translate(987,273) rotate(-59.4388) translate(-4.5,-15.75)">
	<path class="st1" d="M-539-551.7l-4.1-4.1v-20.7h8.3v20.7L-539-551.7z"/>
</g>
<g transform="matrix(2,0,0,2,0,0) translate(1029,273) rotate(-57.1759) translate(-4.5,-15.75)">
	<path class="st1" d="M-605.2-597.6l-4.1-4.1v-20.7h8.3v20.7L-605.2-597.6z"/>
</g>
<g transform="matrix(2,0,0,2,0,0) translate(1071,273) rotate(-55.066) translate(-4.5,-15.75)">
	<path class="st1" d="M-674.1-640.8l-4.1-4.1v-20.7h8.3v20.7L-674.1-640.8z"/>
</g>
<g transform="matrix(2,0,0,2,0,0) translate(1113,273) rotate(-53.0956) translate(-4.5,-15.75)">
	<path class="st1" d="M-745.2-681.5l-4.1-4.1v-20.7h8.3v20.7L-745.2-681.5z"/>
</g>
<g transform="matrix(2,0,0,2,0,0) translate(1155,273) rotate(-51.2523) translate(-4.5,-15.75)">
	<path class="st1" d="M-818.1-719.9l-4.1-4.1v-20.7h8.3v20.7L-818.1-719.9z"/>
</g>
<g transform="matrix(2,0,0,2,0,0) translate(1197,273) rotate(-49.525) translate(-4.5,-15.75)">
	<path class="st1" d="M-892.7-756.1l-4.1-4.1v-20.7h8.3v20.7L-892.7-756.1z"/>
</g>
<g transform="matrix(2,0,0,2,0,0) translate(147,315) rotate(-165.7612) translate(-4.5,-15.75)">
	<path class="st1" d="M-827.3,147l-4.1-4.1v-20.7h8.3l0,20.7L-827.3,147z"/>
</g>
<g transform="matrix(2,0,0,2,0,0) translate(189,315) rotate(-156.2935) translate(-4.5,-15.75)">
	<path class="st1" d="M-723,249.8l-4.1-4.1V225h8.3v20.7L-723,249.8z"/>
</g>
<g transform="matrix(2,0,0,2,0,0) translate(231,315) rotate(-147.0882) translate(-4.5,-15.75)">
	<path class="st1" d="M-610.8,319.5l-4.1-4.1v-20.7h8.3v20.7L-610.8,319.5z"/>
</g>
<g transform="matrix(2,0,0,2,0,0) translate(273,315) rotate(-138.2354) translate(-4.5,-15.75)">
	<path class="st1" d="M-498.8,357.1l-4.1-4.1v-20.7l8.3,0l0,20.7L-498.8,357.1z"/>
</g>
<g transform="matrix(2,0,0,2,0,0) translate(315,315) rotate(-129.8092) translate(-4.5,-15.75)">
	<path class="st1" d="M-393.9,365.4l-4.1-4.1v-20.7h8.3v20.7L-393.9,365.4z"/>
</g>
<g transform="matrix(2,0,0,2,0,0) translate(357,315) rotate(-121.8641) translate(-4.5,-15.75)">
	<path class="st1" d="M-301.2,348.8l-4.1-4.1v-20.7h8.3v20.7L-301.2,348.8z"/>
</g>
<g transform="matrix(2,0,0,2,0,0) translate(399,315) rotate(-114.4339) translate(-4.5,-15.75)">
	<path class="st1" d="M-224,312.2l-4.1-4.1l0-20.7h8.3v20.7L-224,312.2z"/>
</g>
<g transform="matrix(2,0,0,2,0,0) translate(441,315) rotate(-107.5324) translate(-4.5,-15.75)">
	<path class="st1" d="M-164.2,260.7l-4.1-4.1v-20.7h8.3v20.7L-164.2,260.7z"/>
</g>
<g transform="matrix(2,0,0,2,0,0) translate(483,315) rotate(-101.1561) translate(-4.5,-15.75)">
	<path class="st1" d="M-122,199l-4.1-4.1l0-20.7h8.3v20.7L-122,199z"/>
</g>
<g transform="matrix(2,0,0,2,0,0) translate(525,315) rotate(-95.2881) translate(-4.5,-15.75)">
	<path class="st1" d="M-96.6,130.7l-4.1-4.1v-20.7l8.3,0l0,20.7L-96.6,130.7z"/>
</g>
<g transform="matrix(2,0,0,2,0,0) translate(567,315) rotate(-89.902) translate(-4.5,-15.75)">
	<path class="st1" d="M-86.9,59.2L-91,55l0-20.7l8.3,0V55L-86.9,59.2z"/>
</g>
<g transform="matrix(2,0,0,2,0,0) translate(609,315) rotate(-84.9658) translate(-4.5,-15.75)">
	<path class="st1" d="M-91.1-13.4l-4.1-4.1v-20.7h8.3v20.7L-91.1-13.4z"/>
</g>
<g transform="matrix(2,0,0,2,0,0) translate(651,315) rotate(-80.4446) translate(-4.5,-15.75)">
	<path class="st1" d="M-107.7-85.2l-4.1-4.1V-110h8.3l0,20.7L-107.7-85.2z"/>
</g>
<g transform="matrix(2,0,0,2,0,0) translate(693,315) rotate(-76.3027) translate(-4.5,-15.75)">
	<path class="st1" d="M-134.8-155.1l-4.1-4.1V-180h8.3v20.7L-134.8-155.1z"/>
</g>
<g transform="matrix(2,0,0,2,0,0) translate(735,315) rotate(-72.5055) translate(-4.5,-15.75)">
	<path class="st1" d="M-171-222.4l-4.1-4.1v-20.7h8.3l0,20.7L-171-222.4z"/>
</g>
<g transform="matrix(2,0,0,2,0,0) translate(777,315) rotate(-69.0204) translate(-4.5,-15.75)">
	<path class="st1" d="M-214.9-286.5l-4.1-4.1v-20.7h8.3v20.7L-214.9-286.5z"/>
</g>
<g transform="matrix(2,0,0,2,0,0) translate(819,315) rotate(-65.8168) translate(-4.5,-15.75)">
	<path class="st1" d="M-265.3-347.3l-4.1-4.1v-20.7h8.3v20.7L-265.3-347.3z"/>
</g>
<g transform="matrix(2,0,0,2,0,0) translate(861,315) rotate(-62.8671) translate(-4.5,-15.75)">
	<path class="st1" d="M-321.1-404.7l-4.1-4.1v-20.7h8.3v20.7L-321.1-404.7z"/>
</g>
<g transform="matrix(2,0,0,2,0,0) translate(903,315) rotate(-60.1462) translate(-4.5,-15.75)">
	<path class="st1" d="M-381.5-458.7l-4.1-4.1v-20.7h8.3v20.7L-381.5-458.7z"/>
</g>
<g transform="matrix(2,0,0,2,0,0) translate(945,315) rotate(-57.6314) translate(-4.5,-15.75)">
	<path class="st1" d="M-445.8-509.4l-4.1-4.1v-20.7h8.3v20.7L-445.8-509.4z"/>
</g>
<g transform="matrix(2,0,0,2,0,0) translate(987,315) rotate(-55.3025) translate(-4.5,-15.75)">
	<path class="st1" d="M-513.2-556.9l-4.1-4.1v-20.7h8.3l0,20.7L-513.2-556.9z"/>
</g>
<g transform="matrix(2,0,0,2,0,0) translate(1029,315) rotate(-53.1416) translate(-4.5,-15.75)">
	<path class="st1" d="M-583.4-601.5l-4.1-4.1v-20.7h8.3v20.7L-583.4-601.5z"/>
</g>
<g transform="matrix(2,0,0,2,0,0) translate(1071,315) rotate(-51.1325) translate(-4.5,-15.75)">
	<path class="st1" d="M-655.7-643.2l-4.1-4.1v-20.7h8.3v20.7L-655.7-643.2z"/>
</g>
<g transform="matrix(2,0,0,2,0,0) translate(1113,315) rotate(-49.261) translate(-4.5,-15.75)">
	<path class="st1" d="M-730-682.4l-4.1-4.1v-20.7h8.3v20.7L-730-682.4z"/>
</g>
<g transform="matrix(2,0,0,2,0,0) translate(1155,315) rotate(-47.5143) translate(-4.5,-15.75)">
	<path class="st1" d="M-805.8-719.1l-4.1-4.1V-744h8.3v20.7L-805.8-719.1z"/>
</g>
<g transform="matrix(2,0,0,2,0,0) translate(1197,315) rotate(-45.8811) translate(-4.5,-15.75)">
	<path class="st1" d="M-883-753.6l-4.1-4.1v-20.7h8.3v20.7L-883-753.6z"/>
</g>
<g transform="matrix(2,0,0,2,0,0) translate(147,357) rotate(-164.5581) translate(-4.5,-15.75)">
	<path class="st1" d="M-803.2,242.1l-4.1-4.1v-20.7h8.3V238L-803.2,242.1z"/>
</g>
<g transform="matrix(2,0,0,2,0,0) translate(189,357) rotate(-154.3135) translate(-4.5,-15.75)">
	<path class="st1" d="M-680,347.5l-4.1-4.1v-20.7h8.3v20.7L-680,347.5z"/>
</g>
<g transform="matrix(2,0,0,2,0,0) translate(231,357) rotate(-144.3885) translate(-4.5,-15.75)">
	<path class="st1" d="M-549.5,413.7l-4.1-4.1v-20.7h8.3v20.7L-549.5,413.7z"/>
</g>
<g transform="matrix(2,0,0,2,0,0) translate(273,357) rotate(-134.8934) translate(-4.5,-15.75)">
	<path class="st1" d="M-421.8,442.8l-4.1-4.1v-20.7h8.3v20.7L-421.8,442.8z"/>
</g>
<g transform="matrix(2,0,0,2,0,0) translate(315,357) rotate(-125.9175) translate(-4.5,-15.75)">
	<path class="st1" d="M-304.9,438.9l-4.1-4.1v-20.7h8.3v20.7L-304.9,438.9z"/>
</g>
<g transform="matrix(2,0,0,2,0,0) translate(357,357) rotate(-117.5235) translate(-4.5,-15.75)">
	<path class="st1" d="M-204.7,408.2l-4.1-4.1v-20.7h8.3v20.7L-204.7,408.2z"/>
</g>
<g transform="matrix(2,0,0,2,0,0) translate(399,357) rotate(-109.7459) translate(-4.5,-15.75)">
	<path class="st1" d="M-124.4,357.2l-4.1-4.1v-20.7h8.3V353L-124.4,357.2z"/>
</g>
<g transform="matrix(2,0,0,2,0,0) translate(441,357) rotate(-102.5928) translate(-4.5,-15.75)">
	<path class="st1" d="M-65.1,292l-4.1-4.1v-20.7h8.3v20.7L-65.1,292z"/>
</g>
<g transform="matrix(2,0,0,2,0,0) translate(483,357) rotate(-96.0502) translate(-4.5,-15.75)">
	<path class="st1" d="M-26.3,218l-4.1-4.1l0-20.7h8.3l0,20.7L-26.3,218z"/>
</g>
<g transform="matrix(2,0,0,2,0,0) translate(525,357) rotate(-90.0885) translate(-4.5,-15.75)">
	<path class="st1" d="M-6.5,139.6l-4.1-4.1l0-20.7h8.3l0,20.7L-6.5,139.6z"/>
</g>
<g transform="matrix(2,0,0,2,0,0) translate(567,357) rotate(-84.6679) translate(-4.5,-15.75)">
	<path class="st1" d="M-3.6,59.9l-4.1-4.1l0-20.7h8.3l0,20.7L-3.6,59.9z"/>
</g>
<g transform="matrix(2,0,0,2,0,0) translate(609,357) rotate(-79.744) translate(-4.5,-15.75)">
	<path class="st1" d="M-15.4-18.9l-4.1-4.1v-20.7h8.3V-23L-15.4-18.9z"/>
</g>
<g transform="matrix(2,0,0,2,0,0) translate(651,357) rotate(-75.2707) translate(-4.5,-15.75)">
	<path class="st1" d="M-39.6-95.1l-4.1-4.1l0-20.7l8.3,0l0,20.7L-39.6-95.1z"/>
</g>
<g transform="matrix(2,0,0,2,0,0) translate(693,357) rotate(-71.2031) translate(-4.5,-15.75)">
	<path class="st1" d="M-74.4-168l-4.1-4.1v-20.7h8.3v20.7L-74.4-168z"/>
</g>
<g transform="matrix(2,0,0,2,0,0) translate(735,357) rotate(-67.4992) translate(-4.5,-15.75)">
	<path class="st1" d="M-117.9-237l-4.1-4.1v-20.7h8.3l0,20.7L-117.9-237z"/>
</g>
<g transform="matrix(2,0,0,2,0,0) translate(777,357) rotate(-64.1201) translate(-4.5,-15.75)">
	<path class="st1" d="M-168.6-301.8l-4.1-4.1v-20.7h8.3v20.7L-168.6-301.8z"/>
</g>
<g transform="matrix(2,0,0,2,0,0) translate(819,357) rotate(-61.031) translate(-4.5,-15.75)">
	<path class="st1" d="M-225.3-362.6l-4.1-4.1v-20.7h8.3v20.7L-225.3-362.6z"/>
</g>
<g transform="matrix(2,0,0,2,0,0) translate(861,357) rotate(-58.2004) translate(-4.5,-15.75)">
	<path class="st1" d="M-286.9-419.2l-4.1-4.1v-20.7h8.3v20.7L-286.9-419.2z"/>
</g>
<g transform="matrix(2,0,0,2,0,0) translate(903,357) rotate(-55.6008) translate(-4.5,-15.75)">
	<path class="st1" d="M-352.6-472.1l-4.1-4.1v-20.7h8.3v20.7L-352.6-472.1z"/>
</g>
<g transform="matrix(2,0,0,2,0,0) translate(945,357) rotate(-53.2074) translate(-4.5,-15.75)">
	<path class="st1" d="M-421.5-521.3l-4.1-4.1v-20.7h8.3v20.7L-421.5-521.3z"/>
</g>
<g transform="matrix(2,0,0,2,0,0) translate(987,357) rotate(-50.9988) translate(-4.5,-15.75)">
	<path class="st1" d="M-493.2-567.1l-4.1-4.1V-592h8.3v20.7L-493.2-567.1z"/>
</g>
<g transform="matrix(2,0,0,2,0,0) translate(1029,357) rotate(-48.9558) translate(-4.5,-15.75)">
	<path class="st1" d="M-567.1-609.8l-4.1-4.1v-20.7h8.3v20.7L-567.1-609.8z"/>
</g>
<g transform="matrix(2,0,0,2,0,0) translate(1071,357) rotate(-47.0617) translate(-4.5,-15.75)">
	<path class="st1" d="M-642.9-649.6l-4.1-4.1v-20.7h8.3v20.7L-642.9-649.6z"/>
</g>
<g transform="matrix(2,0,0,2,0,0) translate(1113,357) rotate(-45.3018) translate(-4.5,-15.75)">
	<path class="st1" d="M-720.1-686.7l-4.1-4.1v-20.7h8.3v20.7L-720.1-686.7z"/>
</g>
<g transform="matrix(2,0,0,2,0,0) translate(1155,357) rotate(-43.6631) translate(-4.5,-15.75)">
	<path class="st1" d="M-798.7-721.3l-4.1-4.1v-20.7h8.3v20.7L-798.7-721.3z"/>
</g>
<g transform="matrix(2,0,0,2,0,0) translate(1197,357) rotate(-42.134) translate(-4.5,-15.75)">
	<path class="st1" d="M-878.2-753.7l-4.1-4.1v-20.7h8.3v20.7L-878.2-753.7z"/>
</g>
<g transform="matrix(2,0,0,2,0,0) translate(147,399) rotate(-163.1584) translate(-4.5,-15.75)">
	<path class="st1" d="M-774.4,339l-4.1-4.1v-20.7h8.3v20.7L-774.4,339z"/>
</g>
<g transform="matrix(2,0,0,2,0,0) translate(189,399) rotate(-152.0116) translate(-4.5,-15.75)">
	<path class="st1" d="M-628.9,445.9l-4.1-4.1v-20.7h8.3v20.7L-628.9,445.9z"/>
</g>
<g transform="matrix(2,0,0,2,0,0) translate(231,399) rotate(-141.2554) translate(-4.5,-15.75)">
	<path class="st1" d="M-477.3,506.3l-4.1-4.1v-20.7h8.3v20.7L-477.3,506.3z"/>
</g>
<g transform="matrix(2,0,0,2,0,0) translate(273,399) rotate(-131.0278) translate(-4.5,-15.75)">
	<path class="st1" d="M-332.2,523.5l-4.1-4.1v-20.7h8.3v20.7L-332.2,523.5z"/>
</g>
<g transform="matrix(2,0,0,2,0,0) translate(315,399) rotate(-121.439) translate(-4.5,-15.75)">
	<path class="st1" d="M-203.3,503.9l-4.1-4.1v-20.7h8.3l0,20.7L-203.3,503.9z"/>
</g>
<g transform="matrix(2,0,0,2,0,0) translate(357,399) rotate(-112.5619) translate(-4.5,-15.75)">
	<path class="st1" d="M-96.7,455.8l-4.1-4.1l0-20.7h8.3l0,20.7L-96.7,455.8z"/>
</g>
<g transform="matrix(2,0,0,2,0,0) translate(399,399) rotate(-104.4298) translate(-4.5,-15.75)">
	<path class="st1" d="M-15.4,387.8l-4.1-4.1l0-20.7h8.3l0,20.7L-15.4,387.8z"/>
</g>
<g transform="matrix(2,0,0,2,0,0) translate(441,399) rotate(-97.04) translate(-4.5,-15.75)">
	<path class="st1" d="M40.6,307.4l-4.1-4.1l0-20.7h8.3l0,20.7L40.6,307.4z"/>
</g>
<g transform="matrix(2,0,0,2,0,0) translate(483,399) rotate(-90.3618) translate(-4.5,-15.75)">
	<path class="st1" d="M73.1,220.7l-4.1-4.1v-20.7h8.3v20.7L73.1,220.7z"/>
</g>
<g transform="matrix(2,0,0,2,0,0) translate(525,399) rotate(-84.3468) translate(-4.5,-15.75)">
	<path class="st1" d="M84.7,132.2l-4.1-4.1v-20.7h8.3l0,20.7L84.7,132.2z"/>
</g>
<g transform="matrix(2,0,0,2,0,0) translate(567,399) rotate(-78.9371) translate(-4.5,-15.75)">
	<path class="st1" d="M78.5,45.1l-4.1-4.1V20.2h8.3v20.7L78.5,45.1z"/>
</g>
<g transform="matrix(2,0,0,2,0,0) translate(609,399) rotate(-74.0718) translate(-4.5,-15.75)">
	<path class="st1" d="M57.4-38.8l-4.1-4.1v-20.7l8.3,0l0,20.7L57.4-38.8z"/>
</g>
<g transform="matrix(2,0,0,2,0,0) translate(651,399) rotate(-69.6914) translate(-4.5,-15.75)">
	<path class="st1" d="M24-118.2l-4.1-4.1v-20.7h8.3v20.7L24-118.2z"/>
</g>
<g transform="matrix(2,0,0,2,0,0) translate(693,399) rotate(-65.7405) translate(-4.5,-15.75)">
	<path class="st1" d="M-19.4-192.7l-4.1-4.1v-20.7h8.3v20.7L-19.4-192.7z"/>
</g>
<g transform="matrix(2,0,0,2,0,0) translate(735,399) rotate(-62.1686) translate(-4.5,-15.75)">
	<path class="st1" d="M-70.9-262.1l-4.1-4.1l0-20.7h8.3v20.7L-70.9-262.1z"/>
</g>
<g transform="matrix(2,0,0,2,0,0) translate(777,399) rotate(-58.9306) translate(-4.5,-15.75)">
	<path class="st1" d="M-128.9-326.4l-4.1-4.1v-20.7h8.3v20.7L-128.9-326.4z"/>
</g>
<g transform="matrix(2,0,0,2,0,0) translate(819,399) rotate(-55.9871) translate(-4.5,-15.75)">
	<path class="st1" d="M-192.1-385.9l-4.1-4.1v-20.7h8.3v20.7L-192.1-385.9z"/>
</g>
<g transform="matrix(2,0,0,2,0,0) translate(861,399) rotate(-53.3034) translate(-4.5,-15.75)">
	<path class="st1" d="M-259.6-440.9l-4.1-4.1v-20.7h8.3v20.7L-259.6-440.9z"/>
</g>
<g transform="matrix(2,0,0,2,0,0) translate(903,399) rotate(-50.8495) translate(-4.5,-15.75)">
	<path class="st1" d="M-330.4-491.7l-4.1-4.1v-20.7h8.3v20.7L-330.4-491.7z"/>
</g>
<g transform="matrix(2,0,0,2,0,0) translate(945,399) rotate(-48.5992) translate(-4.5,-15.75)">
	<path class="st1" d="M-404-538.6l-4.1-4.1v-20.7h8.3v20.7L-404-538.6z"/>
</g>
<g transform="matrix(2,0,0,2,0,0) translate(987,399) rotate(-46.5297) translate(-4.5,-15.75)">
	<path class="st1" d="M-479.7-582l-4.1-4.1l0-20.7h8.3v20.7L-479.7-582z"/>
</g>
<g transform="matrix(2,0,0,2,0,0) translate(1029,399) rotate(-44.6213) translate(-4.5,-15.75)">
	<path class="st1" d="M-557.2-622.2l-4.1-4.1l0-20.7h8.3v20.7L-557.2-622.2z"/>
</g>
<g transform="matrix(2,0,0,2,0,0) translate(1071,399) rotate(-42.857) translate(-4.5,-15.75)">
	<path class="st1" d="M-636.1-659.4l-4.1-4.1v-20.7h8.3v20.7L-636.1-659.4z"/>
</g>
<g transform="matrix(2,0,0,2,0,0) translate(1113,399) rotate(-41.2217) translate(-4.5,-15.75)">
	<path class="st1" d="M-716.2-694l-4.1-4.1v-20.7h8.3v20.7L-716.2-694z"/>
</g>
<g transform="matrix(2,0,0,2,0,0) translate(1155,399) rotate(-39.7024) translate(-4.5,-15.75)">
	<path class="st1" d="M-797.2-726.1l-4.1-4.1v-20.7h8.3v20.7L-797.2-726.1z"/>
</g>
<g transform="matrix(2,0,0,2,0,0) translate(1197,399) rotate(-38.2876) translate(-4.5,-15.75)">
	<path class="st1" d="M-878.9-756l-4.1-4.1v-20.7h8.3v20.7L-878.9-756z"/>
</g>
<g transform="matrix(2,0,0,2,0,0) translate(147,441) rotate(-161.5209) translate(-4.5,-15.75)">
	<path class="st1" d="M-739.8,437.5l-4.1-4.1v-20.7h8.3v20.7L-739.8,437.5z"/>
</g>
<g transform="matrix(2,0,0,2,0,0) translate(189,441) rotate(-149.3165) translate(-4.5,-15.75)">
	<path class="st1" d="M-567.5,544.5l-4.1-4.1v-20.7h8.3v20.7L-567.5,544.5z"/>
</g>
<g transform="matrix(2,0,0,2,0,0) translate(231,441) rotate(-137.5891) translate(-4.5,-15.75)">
	<path class="st1" d="M-391.5,595.7l-4.1-4.1v-20.7h8.3v20.7L-391.5,595.7z"/>
</g>
<g transform="matrix(2,0,0,2,0,0) translate(273,441) rotate(-126.5172) translate(-4.5,-15.75)">
	<path class="st1" d="M-227.6,596.4l-4.1-4.1v-20.7h8.3v20.7L-227.6,596.4z"/>
</g>
<g transform="matrix(2,0,0,2,0,0) translate(315,441) rotate(-116.2418) translate(-4.5,-15.75)">
	<path class="st1" d="M-87.2,556.4l-4.1-4.1l0-20.7h8.3v20.7L-87.2,556.4z"/>
</g>
<g transform="matrix(2,0,0,2,0,0) translate(357,441) rotate(-106.8492) translate(-4.5,-15.75)">
	<path class="st1" d="M23.3,487.2l-4.1-4.1l0-20.7h8.3l0,20.7L23.3,487.2z"/>
</g>
<g transform="matrix(2,0,0,2,0,0) translate(399,441) rotate(-98.3669) translate(-4.5,-15.75)">
	<path class="st1" d="M102.2,399.6l-4.1-4.1l0-20.7h8.3v20.7L102.2,399.6z"/>
</g>
<g transform="matrix(2,0,0,2,0,0) translate(441,441) rotate(-90.7725) translate(-4.5,-15.75)">
	<path class="st1" d="M151.3,302.9l-4.1-4.1V278h8.3v20.7L151.3,302.9z"/>
</g>
<g transform="matrix(2,0,0,2,0,0) translate(483,441) rotate(-84.0087) translate(-4.5,-15.75)">
	<path class="st1" d="M173.9,203.5l-4.1-4.1v-20.7h8.3v20.7L173.9,203.5z"/>
</g>
<g transform="matrix(2,0,0,2,0,0) translate(525,441) rotate(-77.9994) translate(-4.5,-15.75)">
	<path class="st1" d="M174.4,106l-4.1-4.1V81.1h8.3v20.7L174.4,106z"/>
</g>
<g transform="matrix(2,0,0,2,0,0) translate(567,441) rotate(-72.6621) translate(-4.5,-15.75)">
	<path class="st1" d="M156.7,12.9l-4.1-4.1V-12l8.3,0V8.7L156.7,12.9z"/>
</g>
<g transform="matrix(2,0,0,2,0,0) translate(609,441) rotate(-67.9153) translate(-4.5,-15.75)">
	<path class="st1" d="M124.4-74.4l-4.1-4.1v-20.7h8.3v20.7L124.4-74.4z"/>
</g>
<g transform="matrix(2,0,0,2,0,0) translate(651,441) rotate(-63.6837) translate(-4.5,-15.75)">
	<path class="st1" d="M80.6-155.2l-4.1-4.1l0-20.7h8.3l0,20.7L80.6-155.2z"/>
</g>
<g transform="matrix(2,0,0,2,0,0) translate(693,441) rotate(-59.8999) translate(-4.5,-15.75)">
	<path class="st1" d="M27.8-229.6l-4.1-4.1l0-20.7h8.3l0,20.7L27.8-229.6z"/>
</g>
<g transform="matrix(2,0,0,2,0,0) translate(735,441) rotate(-56.5048) translate(-4.5,-15.75)">
	<path class="st1" d="M-32.2-297.7l-4.1-4.1l0-20.7h8.3l0,20.7L-32.2-297.7z"/>
</g>
<g transform="matrix(2,0,0,2,0,0) translate(777,441) rotate(-53.4475) translate(-4.5,-15.75)">
	<path class="st1" d="M-97.6-360.1l-4.1-4.1v-20.7h8.3l0,20.7L-97.6-360.1z"/>
</g>
<g transform="matrix(2,0,0,2,0,0) translate(819,441) rotate(-50.6841) translate(-4.5,-15.75)">
	<path class="st1" d="M-167.4-417.1l-4.1-4.1v-20.7h8.3l0,20.7L-167.4-417.1z"/>
</g>
<g transform="matrix(2,0,0,2,0,0) translate(861,441) rotate(-48.1774) translate(-4.5,-15.75)">
	<path class="st1" d="M-240.5-469.2l-4.1-4.1V-494h8.3v20.7L-240.5-469.2z"/>
</g>
<g transform="matrix(2,0,0,2,0,0) translate(903,441) rotate(-45.8952) translate(-4.5,-15.75)">
	<path class="st1" d="M-316.3-516.9l-4.1-4.1v-20.7h8.3v20.7L-316.3-516.9z"/>
</g>
<g transform="matrix(2,0,0,2,0,0) translate(945,441) rotate(-43.8105) translate(-4.5,-15.75)">
	<path class="st1" d="M-394.2-560.7l-4.1-4.1v-20.7h8.3v20.7L-394.2-560.7z"/>
</g>
<g transform="matrix(2,0,0,2,0,0) translate(987,441) rotate(-41.8999) translate(-4.5,-15.75)">
	<path class="st1" d="M-473.7-600.9l-4.1-4.1v-20.7h8.3v20.7L-473.7-600.9z"/>
</g>
<g transform="matrix(2,0,0,2,0,0) translate(1029,441) rotate(-40.1433) translate(-4.5,-15.75)">
	<path class="st1" d="M-554.5-637.9l-4.1-4.1v-20.7h8.3v20.7L-554.5-637.9z"/>
</g>
<g transform="matrix(2,0,0,2,0,0) translate(1071,441) rotate(-38.5236) translate(-4.5,-15.75)">
	<path class="st1" d="M-636.2-672.1l-4.1-4.1v-20.7h8.3v20.7L-636.2-672.1z"/>
</g>
<g transform="matrix(2,0,0,2,0,0) translate(1113,441) rotate(-37.0259) translate(-4.5,-15.75)">
	<path class="st1" d="M-718.7-703.7l-4.1-4.1v-20.7h8.3v20.7L-718.7-703.7z"/>
</g>
<g transform="matrix(2,0,0,2,0,0) translate(1155,441) rotate(-35.6374) translate(-4.5,-15.75)">
	<path class="st1" d="M-801.8-732.9l-4.1-4.1v-20.7h8.3v20.7L-801.8-732.9z"/>
</g>
<g transform="matrix(2,0,0,2,0,0) translate(1197,441) rotate(-34.3469) translate(-4.5,-15.75)">
	<path class="st1" d="M-885.3-760l-4.1-4.1v-20.7h8.3v20.7L-885.3-760z"/>
</g>
<g transform="matrix(2,0,0,2,0,0) translate(147,483) rotate(-159.5998) translate(-4.5,-15.75)">
	<path class="st1" d="M-697.6,537.8l-4.1-4.1V513h8.3v20.7L-697.6,537.8z"/>
</g>
<g transform="matrix(2,0,0,2,0,0) translate(189,483) rotate(-146.142) translate(-4.5,-15.75)">
	<path class="st1" d="M-493.2,642.4l-4.1-4.1v-20.7h8.3v20.7L-493.2,642.4z"/>
</g>
<g transform="matrix(2,0,0,2,0,0) translate(231,483) rotate(-133.261) translate(-4.5,-15.75)">
	<path class="st1" d="M-289,679.2l-4.1-4.1v-20.7h8.3v20.7L-289,679.2z"/>
</g>
<g transform="matrix(2,0,0,2,0,0) translate(273,483) rotate(-121.2005) translate(-4.5,-15.75)">
	<path class="st1" d="M-105.1,657.2l-4.1-4.1l0-20.7h8.3v20.7L-105.1,657.2z"/>
</g>
<g transform="matrix(2,0,0,2,0,0) translate(315,483) rotate(-110.1515) translate(-4.5,-15.75)">
	<path class="st1" d="M44.8,590.9l-4.1-4.1v-20.7H49l0,20.7L44.8,590.9z"/>
</g>
<g transform="matrix(2,0,0,2,0,0) translate(357,483) rotate(-100.2176) translate(-4.5,-15.75)">
	<path class="st1" d="M155.3,496.2l-4.1-4.1v-20.7h8.3v20.7L155.3,496.2z"/>
</g>
<g transform="matrix(2,0,0,2,0,0) translate(399,483) rotate(-91.4105) translate(-4.5,-15.75)">
	<path class="st1" d="M226.8,387.1l-4.1-4.1v-20.7h8.3l0,20.7L226.8,387.1z"/>
</g>
<g transform="matrix(2,0,0,2,0,0) translate(441,483) rotate(-83.6713) translate(-4.5,-15.75)">
	<path class="st1" d="M264,273.7l-4.1-4.1v-20.7l8.3,0l0,20.7L264,273.7z"/>
</g>
<g transform="matrix(2,0,0,2,0,0) translate(483,483) rotate(-76.9) translate(-4.5,-15.75)">
	<path class="st1" d="M272.6,162.9l-4.1-4.1v-20.7h8.3v20.7L272.6,162.9z"/>
</g>
<g transform="matrix(2,0,0,2,0,0) translate(525,483) rotate(-70.9806) translate(-4.5,-15.75)">
	<path class="st1" d="M258.6,58.4l-4.1-4.1V33.5l8.3,0v20.7L258.6,58.4z"/>
</g>
<g transform="matrix(2,0,0,2,0,0) translate(567,483) rotate(-65.7975) translate(-4.5,-15.75)">
	<path class="st1" d="M227-38.2l-4.1-4.1v-20.7h8.3v20.7L227-38.2z"/>
</g>
<g transform="matrix(2,0,0,2,0,0) translate(609,483) rotate(-61.2449) translate(-4.5,-15.75)">
	<path class="st1" d="M182.1-126.4l-4.1-4.1v-20.7h8.3v20.7L182.1-126.4z"/>
</g>
<g transform="matrix(2,0,0,2,0,0) translate(651,483) rotate(-57.2296) translate(-4.5,-15.75)">
	<path class="st1" d="M127.1-206.2l-4.1-4.1V-231h8.3v20.7L127.1-206.2z"/>
</g>
<g transform="matrix(2,0,0,2,0,0) translate(735,483) rotate(-50.5046) translate(-4.5,-15.75)">
	<path class="st1" d="M-4-343.4l-4.1-4.1l0-20.7h8.3l0,20.7L-4-343.4z"/>
</g>
<g transform="matrix(2,0,0,2,0,0) translate(777,483) rotate(-47.6714) translate(-4.5,-15.75)">
	<path class="st1" d="M-76.8-402.1l-4.1-4.1v-20.7h8.3v20.7L-76.8-402.1z"/>
</g>
<g transform="matrix(2,0,0,2,0,0) translate(819,483) rotate(-45.1255) translate(-4.5,-15.75)">
	<path class="st1" d="M-152.8-455.2l-4.1-4.1V-480h8.3v20.7L-152.8-455.2z"/>
</g>
<g transform="matrix(2,0,0,2,0,0) translate(861,483) rotate(-42.8274) translate(-4.5,-15.75)">
	<path class="st1" d="M-231.2-503.3l-4.1-4.1l0-20.7h8.3v20.7L-231.2-503.3z"/>
</g>
<g transform="matrix(2,0,0,2,0,0) translate(903,483) rotate(-40.7442) translate(-4.5,-15.75)">
	<path class="st1" d="M-311.6-547l-4.1-4.1v-20.7h8.3v20.7L-311.6-547z"/>
</g>
<g transform="matrix(2,0,0,2,0,0) translate(945,483) rotate(-38.8483) translate(-4.5,-15.75)">
	<path class="st1" d="M-393.3-586.8l-4.1-4.1v-20.7h8.3v20.7L-393.3-586.8z"/>
</g>
<g transform="matrix(2,0,0,2,0,0) translate(987,483) rotate(-37.1164) translate(-4.5,-15.75)">
	<path class="st1" d="M-476-623.1l-4.1-4.1V-648h8.3v20.7L-476-623.1z"/>
</g>
<g transform="matrix(2,0,0,2,0,0) translate(1029,483) rotate(-35.5288) translate(-4.5,-15.75)">
	<path class="st1" d="M-559.5-656.4l-4.1-4.1v-20.7h8.3v20.7L-559.5-656.4z"/>
</g>
<g transform="matrix(2,0,0,2,0,0) translate(1071,483) rotate(-34.0685) translate(-4.5,-15.75)">
	<path class="st1" d="M-643.6-687l-4.1-4.1v-20.7h8.3v20.7L-643.6-687z"/>
</g>
<g transform="matrix(2,0,0,2,0,0) translate(1113,483) rotate(-32.7213) translate(-4.5,-15.75)">
	<path class="st1" d="M-728.2-715.1l-4.1-4.1V-740h8.3v20.7L-728.2-715.1z"/>
</g>
<g transform="matrix(2,0,0,2,0,0) translate(1155,483) rotate(-31.4747) translate(-4.5,-15.75)">
	<path class="st1" d="M-813-741.1l-4.1-4.1v-20.7h8.3v20.7L-813-741.1z"/>
</g>
<g transform="matrix(2,0,0,2,0,0) translate(1197,483) rotate(-30.3181) translate(-4.5,-15.75)">
	<path class="st1" d="M-898-765.1l-4.1-4.1V-790h8.3v20.7L-898-765.1z"/>
</g>
<g transform="matrix(2,0,0,2,0,0) translate(147,525) rotate(-157.3551) translate(-4.5,-15.75)">
	<path class="st1" d="M-646.1,639.3l-4.1-4.1v-20.7h8.3v20.7L-646.1,639.3z"/>
</g>
<g transform="matrix(2,0,0,2,0,0) translate(189,525) rotate(-142.3904) translate(-4.5,-15.75)">
	<path class="st1" d="M-402.9,737.5l-4.1-4.1v-20.7h8.3v20.7L-402.9,737.5z"/>
</g>
<g transform="matrix(2,0,0,2,0,0) translate(231,525) rotate(-128.1033) translate(-4.5,-15.75)">
	<path class="st1" d="M-166,752.7l-4.1-4.1l0-20.7h8.3v20.7L-166,752.7z"/>
</g>
<g transform="matrix(2,0,0,2,0,0) translate(273,525) rotate(-114.8566) translate(-4.5,-15.75)">
	<path class="st1" d="M38,699.4l-4.1-4.1v-20.7h8.3v20.7L38,699.4z"/>
</g>
<g transform="matrix(2,0,0,2,0,0) translate(315,525) rotate(-102.9302) translate(-4.5,-15.75)">
	<path class="st1" d="M193.6,599.5l-4.1-4.1v-20.7h8.3v20.7L193.6,599.5z"/>
</g>
<g transform="matrix(2,0,0,2,0,0) translate(357,525) rotate(-92.4473) translate(-4.5,-15.75)">
	<path class="st1" d="M297.4,475l-4.1-4.1v-20.7h8.3v20.7L297.4,475z"/>
</g>
<g transform="matrix(2,0,0,2,0,0) translate(399,525) rotate(-83.3794) translate(-4.5,-15.75)">
	<path class="st1" d="M354.6,343.2l-4.1-4.1v-20.7h8.3v20.7L354.6,343.2z"/>
</g>
<g transform="matrix(2,0,0,2,0,0) translate(441,525) rotate(-75.5999) translate(-4.5,-15.75)">
	<path class="st1" d="M373.7,214.9l-4.1-4.1V190h8.3v20.7L373.7,214.9z"/>
</g>
<g transform="matrix(2,0,0,2,0,0) translate(483,525) rotate(-68.9398) translate(-4.5,-15.75)">
	<path class="st1" d="M363.6,95.6l-4.1-4.1V70.7h8.3l0,20.7L363.6,95.6z"/>
</g>
<g transform="matrix(2,0,0,2,0,0) translate(525,525) rotate(-63.227) translate(-4.5,-15.75)">
	<path class="st1" d="M332-12.5l-4.1-4.1v-20.7l8.3,0v20.7L332-12.5z"/>
</g>
<g transform="matrix(2,0,0,2,0,0) translate(567,525) rotate(-58.3049) translate(-4.5,-15.75)">
	<path class="st1" d="M284.8-109l-4.1-4.1v-20.7h8.3v20.7L284.8-109z"/>
</g>
<g transform="matrix(2,0,0,2,0,0) translate(609,525) rotate(-54.0395) translate(-4.5,-15.75)">
	<path class="st1" d="M226.3-194.8l-4.1-4.1v-20.7h8.3v20.7L226.3-194.8z"/>
</g>
<g transform="matrix(2,0,0,2,0,0) translate(651,525) rotate(-50.3199) translate(-4.5,-15.75)">
	<path class="st1" d="M159.8-270.7l-4.1-4.1v-20.7h8.3l0,20.7L159.8-270.7z"/>
</g>
<g transform="matrix(2,0,0,2,0,0) translate(693,525) rotate(-47.0552) translate(-4.5,-15.75)">
	<path class="st1" d="M87.5-338.1l-4.1-4.1v-20.7h8.3v20.7L87.5-338.1z"/>
</g>
<g transform="matrix(2,0,0,2,0,0) translate(735,525) rotate(-44.1717) translate(-4.5,-15.75)">
	<path class="st1" d="M11-398l-4.1-4.1l0-20.7h8.3v20.7L11-398z"/>
</g>
<g transform="matrix(2,0,0,2,0,0) translate(777,525) rotate(-41.6096) translate(-4.5,-15.75)">
	<path class="st1" d="M-68.4-451.4l-4.1-4.1v-20.7h8.3l0,20.7L-68.4-451.4z"/>
</g>
<g transform="matrix(2,0,0,2,0,0) translate(819,525) rotate(-39.3201) translate(-4.5,-15.75)">
	<path class="st1" d="M-150-499.2l-4.1-4.1V-524h8.3v20.7L-150-499.2z"/>
</g>
<g transform="matrix(2,0,0,2,0,0) translate(861,525) rotate(-37.2633) translate(-4.5,-15.75)">
	<path class="st1" d="M-233-542.1l-4.1-4.1v-20.7h8.3v20.7L-233-542.1z"/>
</g>
<g transform="matrix(2,0,0,2,0,0) translate(903,525) rotate(-35.4066) translate(-4.5,-15.75)">
	<path class="st1" d="M-317.2-580.8l-4.1-4.1v-20.7h8.3l0,20.7L-317.2-580.8z"/>
</g>
<g transform="matrix(2,0,0,2,0,0) translate(945,525) rotate(-33.7228) translate(-4.5,-15.75)">
	<path class="st1" d="M-402-615.8l-4.1-4.1v-20.7h8.3v20.7L-402-615.8z"/>
</g>
<g transform="matrix(2,0,0,2,0,0) translate(987,525) rotate(-32.1893) translate(-4.5,-15.75)">
	<path class="st1" d="M-487.4-647.7l-4.1-4.1v-20.7h8.3v20.7L-487.4-647.7z"/>
</g>
<g transform="matrix(2,0,0,2,0,0) translate(1029,525) rotate(-30.7873) translate(-4.5,-15.75)">
	<path class="st1" d="M-573.1-676.7l-4.1-4.1v-20.7h8.3v20.7L-573.1-676.7z"/>
</g>
<g transform="matrix(2,0,0,2,0,0) translate(1071,525) rotate(-29.5008) translate(-4.5,-15.75)">
	<path class="st1" d="M-659-703.3l-4.1-4.1v-20.7h8.3v20.7L-659-703.3z"/>
</g>
<g transform="matrix(2,0,0,2,0,0) translate(1113,525) rotate(-28.3163) translate(-4.5,-15.75)">
	<path class="st1" d="M-745-727.6l-4.1-4.1v-20.7h8.3l0,20.7L-745-727.6z"/>
</g>
<g transform="matrix(2,0,0,2,0,0) translate(1155,525) rotate(-27.2222) translate(-4.5,-15.75)">
	<path class="st1" d="M-831-750.1l-4.1-4.1v-20.7h8.3v20.7L-831-750.1z"/>
</g>
<g transform="matrix(2,0,0,2,0,0) translate(1197,525) rotate(-26.2089) translate(-4.5,-15.75)">
	<path class="st1" d="M-917-770.8l-4.1-4.1v-20.7h8.3v20.7L-917-770.8z"/>
</g>
<g transform="matrix(2,0,0,2,0,0) translate(147,567) rotate(-154.7844) translate(-4.5,-15.75)">
	<path class="st1" d="M-583.8,740.9l-4.1-4.1V716h8.3v20.7L-583.8,740.9z"/>
</g>
<g transform="matrix(2,0,0,2,0,0) translate(189,567) rotate(-137.9679) translate(-4.5,-15.75)">
	<path class="st1" d="M-293.2,826.7l-4.1-4.1v-20.7h8.3v20.7L-293.2,826.7z"/>
</g>
<g transform="matrix(2,0,0,2,0,0) translate(231,567) rotate(-121.8898) translate(-4.5,-15.75)">
	<path class="st1" d="M-18.4,809.5l-4.1-4.1l0-20.7h8.3l0,20.7L-18.4,809.5z"/>
</g>
<g transform="matrix(2,0,0,2,0,0) translate(273,567) rotate(-107.1638) translate(-4.5,-15.75)">
	<path class="st1" d="M204.3,712.7l-4.1-4.1v-20.7h8.3v20.7L204.3,712.7z"/>
</g>
<g transform="matrix(2,0,0,2,0,0) translate(315,567) rotate(-94.2388) translate(-4.5,-15.75)">
	<path class="st1" d="M357.8,570.3l-4.1-4.1v-20.7h8.3v20.7L357.8,570.3z"/>
</g>
<g transform="matrix(2,0,0,2,0,0) translate(357,567) rotate(-83.2455) translate(-4.5,-15.75)">
	<path class="st1" d="M444.9,413l-4.1-4.1v-20.7h8.3v20.7L444.9,413z"/>
</g>
<g transform="matrix(2,0,0,2,0,0) translate(399,567) rotate(-74.0537) translate(-4.5,-15.75)">
	<path class="st1" d="M478.2,260.2l-4.1-4.1v-20.7l8.3,0l0,20.7L478.2,260.2z"/>
</g>
<g transform="matrix(2,0,0,2,0,0) translate(441,567) rotate(-66.4088) translate(-4.5,-15.75)">
	<path class="st1" d="M472.3,121.3l-4.1-4.1V96.4l8.3,0v20.7L472.3,121.3z"/>
</g>
<g transform="matrix(2,0,0,2,0,0) translate(483,567) rotate(-60.0354) translate(-4.5,-15.75)">
	<path class="st1" d="M439.2-1.1l-4.1-4.1v-20.7l8.3,0v20.7L439.2-1.1z"/>
</g>
<g transform="matrix(2,0,0,2,0,0) translate(525,567) rotate(-54.6866) translate(-4.5,-15.75)">
	<path class="st1" d="M387.8-107.3l-4.1-4.1v-20.7h8.3v20.7L387.8-107.3z"/>
</g>
<g transform="matrix(2,0,0,2,0,0) translate(567,567) rotate(-50.1593) translate(-4.5,-15.75)">
	<path class="st1" d="M324.1-199l-4.1-4.1v-20.7h8.3v20.7L324.1-199z"/>
</g>
<g transform="matrix(2,0,0,2,0,0) translate(609,567) rotate(-46.2919) translate(-4.5,-15.75)">
	<path class="st1" d="M252.2-278.3l-4.1-4.1v-20.7h8.3v20.7L252.2-278.3z"/>
</g>
<g transform="matrix(2,0,0,2,0,0) translate(651,567) rotate(-42.9581) translate(-4.5,-15.75)">
	<path class="st1" d="M174.9-347.1l-4.1-4.1V-372h8.3v20.7L174.9-347.1z"/>
</g>
<g transform="matrix(2,0,0,2,0,0) translate(693,567) rotate(-40.0597) translate(-4.5,-15.75)">
	<path class="st1" d="M93.9-407.2l-4.1-4.1V-432H98l0,20.7L93.9-407.2z"/>
</g>
<g transform="matrix(2,0,0,2,0,0) translate(735,567) rotate(-37.5193) translate(-4.5,-15.75)">
	<path class="st1" d="M10.5-459.8l-4.1-4.1l0-20.7h8.3l0,20.7L10.5-459.8z"/>
</g>
<g transform="matrix(2,0,0,2,0,0) translate(777,567) rotate(-35.2765) translate(-4.5,-15.75)">
	<path class="st1" d="M-74.5-506.2l-4.1-4.1l0-20.7h8.3v20.7L-74.5-506.2z"/>
</g>
<g transform="matrix(2,0,0,2,0,0) translate(819,567) rotate(-33.283) translate(-4.5,-15.75)">
	<path class="st1" d="M-160.6-547.4l-4.1-4.1v-20.7h8.3v20.7L-160.6-547.4z"/>
</g>
<g transform="matrix(2,0,0,2,0,0) translate(861,567) rotate(-31.5002) translate(-4.5,-15.75)">
	<path class="st1" d="M-247.2-584.1l-4.1-4.1l0-20.7h8.3v20.7L-247.2-584.1z"/>
</g>
<g transform="matrix(2,0,0,2,0,0) translate(903,567) rotate(-29.8968) translate(-4.5,-15.75)">
	<path class="st1" d="M-334.2-617l-4.1-4.1v-20.7h8.3v20.7L-334.2-617z"/>
</g>
<g transform="matrix(2,0,0,2,0,0) translate(945,567) rotate(-28.4475) translate(-4.5,-15.75)">
	<path class="st1" d="M-421.3-646.6l-4.1-4.1v-20.7h8.3v20.7L-421.3-646.6z"/>
</g>
<g transform="matrix(2,0,0,2,0,0) translate(987,567) rotate(-27.1312) translate(-4.5,-15.75)">
	<path class="st1" d="M-508.5-673.4l-4.1-4.1v-20.7h8.3v20.7L-508.5-673.4z"/>
</g>
<g transform="matrix(2,0,0,2,0,0) translate(1029,567) rotate(-25.9306) translate(-4.5,-15.75)">
	<path class="st1" d="M-595.6-697.8l-4.1-4.1v-20.7h8.3v20.7L-595.6-697.8z"/>
</g>
<g transform="matrix(2,0,0,2,0,0) translate(1071,567) rotate(-24.8313) translate(-4.5,-15.75)">
	<path class="st1" d="M-682.7-720l-4.1-4.1v-20.7h8.3v20.7L-682.7-720z"/>
</g>
<g transform="matrix(2,0,0,2,0,0) translate(1113,567) rotate(-23.821) translate(-4.5,-15.75)">
	<path class="st1" d="M-769.5-740.3l-4.1-4.1v-20.7h8.3v20.7L-769.5-740.3z"/>
</g>
<g transform="matrix(2,0,0,2,0,0) translate(1155,567) rotate(-22.8894) translate(-4.5,-15.75)">
	<path class="st1" d="M-856.2-759l-4.1-4.1l0-20.7l8.3,0v20.7L-856.2-759z"/>
</g>
<g transform="matrix(2,0,0,2,0,0) translate(1197,567) rotate(-22.0277) translate(-4.5,-15.75)">
	<path class="st1" d="M-942.7-776.2l-4.1-4.1V-801h8.3v20.7L-942.7-776.2z"/>
</g>
<g transform="matrix(2,0,0,2,0,0) translate(147,609) rotate(-152.0165) translate(-4.5,-15.75)">
	<path class="st1" d="M-511,839.6l-4.1-4.1v-20.7h8.3v20.7L-511,839.6z"/>
</g>
<g transform="matrix(2,0,0,2,0,0) translate(189,609) rotate(-132.8337) translate(-4.5,-15.75)">
	<path class="st1" d="M-161.6,904.9l-4.1-4.1v-20.7h8.3v20.7L-161.6,904.9z"/>
</g>
<g transform="matrix(2,0,0,2,0,0) translate(231,609) rotate(-114.2915) translate(-4.5,-15.75)">
	<path class="st1" d="M158.4,838.9l-4.1-4.1l0-20.7h8.3v20.7L158.4,838.9z"/>
</g>
<g transform="matrix(2,0,0,2,0,0) translate(273,609) rotate(-97.6095) translate(-4.5,-15.75)">
	<path class="st1" d="M394.7,680.7l-4.1-4.1v-20.7h8.3v20.7L394.7,680.7z"/>
</g>
<g transform="matrix(2,0,0,2,0,0) translate(315,609) rotate(-83.5705) translate(-4.5,-15.75)">
	<path class="st1" d="M531.8,486.5l-4.1-4.1v-20.7h8.3v20.7L531.8,486.5z"/>
</g>
<g transform="matrix(2,0,0,2,0,0) translate(357,609) rotate(-72.223) translate(-4.5,-15.75)">
	<path class="st1" d="M586.7,297.1l-4.1-4.1v-20.7h8.3V293L586.7,297.1z"/>
</g>
<g transform="matrix(2,0,0,2,0,0) translate(399,609) rotate(-63.1792) translate(-4.5,-15.75)">
	<path class="st1" d="M585,130.3l-4.1-4.1v-20.7h8.3v20.7L585,130.3z"/>
</g>
<g transform="matrix(2,0,0,2,0,0) translate(441,609) rotate(-55.9521) translate(-4.5,-15.75)">
	<path class="st1" d="M547.9-10.3l-4.1-4.1v-20.7h8.3v20.7L547.9-10.3z"/>
</g>
<g transform="matrix(2,0,0,2,0,0) translate(483,609) rotate(-50.1138) translate(-4.5,-15.75)">
	<path class="st1" d="M489.2-127.2l-4.1-4.1V-152h8.3v20.7L489.2-127.2z"/>
</g>
<g transform="matrix(2,0,0,2,0,0) translate(525,609) rotate(-45.332) translate(-4.5,-15.75)">
	<path class="st1" d="M417.7-224.4l-4.1-4.1v-20.7h8.3l0,20.7L417.7-224.4z"/>
</g>
<g transform="matrix(2,0,0,2,0,0) translate(567,609) rotate(-41.3596) translate(-4.5,-15.75)">
	<path class="st1" d="M338.6-305.7l-4.1-4.1v-20.7h8.3v20.7L338.6-305.7z"/>
</g>
<g transform="matrix(2,0,0,2,0,0) translate(609,609) rotate(-38.0151) translate(-4.5,-15.75)">
	<path class="st1" d="M254.9-374.3l-4.1-4.1v-20.7h8.3v20.7L254.9-374.3z"/>
</g>
<g transform="matrix(2,0,0,2,0,0) translate(651,609) rotate(-35.1647) translate(-4.5,-15.75)">
	<path class="st1" d="M168.6-432.7l-4.1-4.1v-20.7h8.3v20.7L168.6-432.7z"/>
</g>
<g transform="matrix(2,0,0,2,0,0) translate(693,609) rotate(-32.7086) translate(-4.5,-15.75)">
	<path class="st1" d="M80.7-482.8l-4.1-4.1v-20.7h8.3v20.7L80.7-482.8z"/>
</g>
<g transform="matrix(2,0,0,2,0,0) translate(735,609) rotate(-30.5715) translate(-4.5,-15.75)">
	<path class="st1" d="M-7.9-526.3l-4.1-4.1l0-20.7h8.3l0,20.7L-7.9-526.3z"/>
</g>
<g transform="matrix(2,0,0,2,0,0) translate(777,609) rotate(-28.6958) translate(-4.5,-15.75)">
	<path class="st1" d="M-96.8-564.3l-4.1-4.1v-20.7h8.3l0,20.7L-96.8-564.3z"/>
</g>
<g transform="matrix(2,0,0,2,0,0) translate(819,609) rotate(-27.0365) translate(-4.5,-15.75)">
	<path class="st1" d="M-185.8-597.8l-4.1-4.1v-20.7h8.3v20.7L-185.8-597.8z"/>
</g>
<g transform="matrix(2,0,0,2,0,0) translate(861,609) rotate(-25.5585) translate(-4.5,-15.75)">
	<path class="st1" d="M-274.6-627.5l-4.1-4.1v-20.7h8.3v20.7L-274.6-627.5z"/>
</g>
<g transform="matrix(2,0,0,2,0,0) translate(903,609) rotate(-24.2338) translate(-4.5,-15.75)">
	<path class="st1" d="M-363.3-653.9l-4.1-4.1v-20.7h8.3v20.7L-363.3-653.9z"/>
</g>
<g transform="matrix(2,0,0,2,0,0) translate(945,609) rotate(-23.0397) translate(-4.5,-15.75)">
	<path class="st1" d="M-451.7-677.7l-4.1-4.1v-20.7h8.3v20.7L-451.7-677.7z"/>
</g>
<g transform="matrix(2,0,0,2,0,0) translate(987,609) rotate(-21.9578) translate(-4.5,-15.75)">
	<path class="st1" d="M-539.7-699.1l-4.1-4.1v-20.7h8.3v20.7L-539.7-699.1z"/>
</g>
<g transform="matrix(2,0,0,2,0,0) translate(1029,609) rotate(-20.9732) translate(-4.5,-15.75)">
	<path class="st1" d="M-627.4-718.5l-4.1-4.1v-20.7h8.3v20.7L-627.4-718.5z"/>
</g>
<g transform="matrix(2,0,0,2,0,0) translate(1071,609) rotate(-20.0731) translate(-4.5,-15.75)">
	<path class="st1" d="M-714.9-736.1l-4.1-4.1v-20.7h8.3v20.7L-714.9-736.1z"/>
</g>
<g transform="matrix(2,0,0,2,0,0) translate(1113,609) rotate(-19.2473) translate(-4.5,-15.75)">
	<path class="st1" d="M-801.9-752.2l-4.1-4.1v-20.7h8.3v20.7L-801.9-752.2z"/>
</g>
<g transform="matrix(2,0,0,2,0,0) translate(1155,609) rotate(-18.4868) translate(-4.5,-15.75)">
	<path class="st1" d="M-888.7-767l-4.1-4.1v-20.7h8.3v20.7L-888.7-767z"/>
</g>
<g transform="matrix(2,0,0,2,0,0) translate(1197,609) rotate(-17.7843) translate(-4.5,-15.75)">
	<path class="st1" d="M-975.2-780.6l-4.1-4.1v-20.7h8.3v20.7L-975.2-780.6z"/>
</g>
<g transform="matrix(2,0,0,2,0,0) translate(147,651) rotate(-149.5819) translate(-4.5,-15.75)">
	<path class="st1" d="M-435.3,930.3l-4.1-4.1l0-20.7h8.3l0,20.7L-435.3,930.3z"/>
</g>
<g transform="matrix(2,0,0,2,0,0) translate(189,651) rotate(-127.1455) translate(-4.5,-15.75)">
	<path class="st1" d="M-9.8,965.8l-4.1-4.1l0-20.7h8.3l0,20.7L-9.8,965.8z"/>
</g>
<g transform="matrix(2,0,0,2,0,0) translate(231,651) rotate(-104.7358) translate(-4.5,-15.75)">
	<path class="st1" d="M368.4,822.6l-4.1-4.1v-20.7l8.3,0v20.7L368.4,822.6z"/>
</g>
<g transform="matrix(2,0,0,2,0,0) translate(273,651) rotate(-85.2705) translate(-4.5,-15.75)">
	<path class="st1" d="M605,575.7l-4.1-4.1v-20.7h8.3v20.7L605,575.7z"/>
</g>
<g transform="matrix(2,0,0,2,0,0) translate(315,651) rotate(-70.1401) translate(-4.5,-15.75)">
	<path class="st1" d="M699.2,324.2l-4.1-4.1v-20.7h8.3v20.7L699.2,324.2z"/>
</g>
<g transform="matrix(2,0,0,2,0,0) translate(357,651) rotate(-58.8864) translate(-4.5,-15.75)">
	<path class="st1" d="M701.6,114l-4.1-4.1V89.1h8.3v20.7L701.6,114z"/>
</g>
<g transform="matrix(2,0,0,2,0,0) translate(399,651) rotate(-50.5012) translate(-4.5,-15.75)">
	<path class="st1" d="M655-50.8l-4.1-4.1v-20.7h8.3v20.7L655-50.8z"/>
</g>
<g transform="matrix(2,0,0,2,0,0) translate(441,651) rotate(-44.1235) translate(-4.5,-15.75)">
	<path class="st1" d="M584.1-178.7l-4.1-4.1v-20.7h8.3v20.7L584.1-178.7z"/>
</g>
<g transform="matrix(2,0,0,2,0,0) translate(483,651) rotate(-39.1503) translate(-4.5,-15.75)">
	<path class="st1" d="M501.3-279.1l-4.1-4.1v-20.7h8.3v20.7L501.3-279.1z"/>
</g>
<g transform="matrix(2,0,0,2,0,0) translate(525,651) rotate(-35.1788) translate(-4.5,-15.75)">
	<path class="st1" d="M412.8-359.2l-4.1-4.1V-384h8.3v20.7L412.8-359.2z"/>
</g>
<g transform="matrix(2,0,0,2,0,0) translate(567,651) rotate(-31.9398) translate(-4.5,-15.75)">
	<path class="st1" d="M321.7-424.3l-4.1-4.1v-20.7h8.3v20.7L321.7-424.3z"/>
</g>
<g transform="matrix(2,0,0,2,0,0) translate(609,651) rotate(-29.2498) translate(-4.5,-15.75)">
	<path class="st1" d="M229.7-478l-4.1-4.1v-20.7h8.3v20.7L229.7-478z"/>
</g>
<g transform="matrix(2,0,0,2,0,0) translate(651,651) rotate(-26.9809) translate(-4.5,-15.75)">
	<path class="st1" d="M137.6-523.1l-4.1-4.1V-548h8.3v20.7L137.6-523.1z"/>
</g>
<g transform="matrix(2,0,0,2,0,0) translate(693,651) rotate(-25.0415) translate(-4.5,-15.75)">
	<path class="st1" d="M45.7-561.5l-4.1-4.1l0-20.7h8.3l0,20.7L45.7-561.5z"/>
</g>
<g transform="matrix(2,0,0,2,0,0) translate(735,651) rotate(-23.3645) translate(-4.5,-15.75)">
	<path class="st1" d="M-45.6-594.4l-4.1-4.1l0-20.7h8.3l0,20.7L-45.6-594.4z"/>
</g>
<g transform="matrix(2,0,0,2,0,0) translate(777,651) rotate(-21.9) translate(-4.5,-15.75)">
	<path class="st1" d="M-136.4-623l-4.1-4.1v-20.7h8.3v20.7L-136.4-623z"/>
</g>
<g transform="matrix(2,0,0,2,0,0) translate(819,651) rotate(-20.6099) translate(-4.5,-15.75)">
	<path class="st1" d="M-226.5-648l-4.1-4.1v-20.7h8.3v20.7L-226.5-648z"/>
</g>
<g transform="matrix(2,0,0,2,0,0) translate(861,651) rotate(-19.4645) translate(-4.5,-15.75)">
	<path class="st1" d="M-316-670.1l-4.1-4.1v-20.7h8.3v20.7L-316-670.1z"/>
</g>
<g transform="matrix(2,0,0,2,0,0) translate(903,651) rotate(-18.4408) translate(-4.5,-15.75)">
	<path class="st1" d="M-405-689.8l-4.1-4.1v-20.7h8.3l0,20.7L-405-689.8z"/>
</g>
<g transform="matrix(2,0,0,2,0,0) translate(945,651) rotate(-17.5202) translate(-4.5,-15.75)">
	<path class="st1" d="M-493.4-707.4l-4.1-4.1v-20.7h8.3v20.7L-493.4-707.4z"/>
</g>
<g transform="matrix(2,0,0,2,0,0) translate(987,651) rotate(-16.6877) translate(-4.5,-15.75)">
	<path class="st1" d="M-581.2-723.2l-4.1-4.1V-748h8.3v20.7L-581.2-723.2z"/>
</g>
<g transform="matrix(2,0,0,2,0,0) translate(1029,651) rotate(-15.9314) translate(-4.5,-15.75)">
	<path class="st1" d="M-668.7-737.6l-4.1-4.1v-20.7h8.3v20.7L-668.7-737.6z"/>
</g>
<g transform="matrix(2,0,0,2,0,0) translate(1071,651) rotate(-15.2411) translate(-4.5,-15.75)">
	<path class="st1" d="M-755.7-750.6l-4.1-4.1v-20.7h8.3v20.7L-755.7-750.6z"/>
</g>
<g transform="matrix(2,0,0,2,0,0) translate(1113,651) rotate(-14.6084) translate(-4.5,-15.75)">
	<path class="st1" d="M-842.2-762.5l-4.1-4.1v-20.7h8.3v20.7L-842.2-762.5z"/>
</g>
<g transform="matrix(2,0,0,2,0,0) translate(1155,651) rotate(-14.0266) translate(-4.5,-15.75)">
	<path class="st1" d="M-928.5-773.4l-4.1-4.1v-20.7h8.3v20.7L-928.5-773.4z"/>
</g>
<g transform="matrix(2,0,0,2,0,0) translate(1197,651) rotate(-13.4895) translate(-4.5,-15.75)">
	<path class="st1" d="M-1014.4-783.4l-4.1-4.1v-20.7h8.3v20.7L-1014.4-783.4z"/>
</g>
<g transform="matrix(2,0,0,2,0,0) translate(147,693) rotate(-149.193) translate(-4.5,-15.75)">
	<path class="st1" d="M-387.9,1002.5l-4.1-4.1v-20.7h8.3v20.7L-387.9,1002.5z"/>
</g>
<g transform="matrix(2,0,0,2,0,0) translate(189,693) rotate(-121.7526) translate(-4.5,-15.75)">
	<path class="st1" d="M146.7,1005.4l-4.1-4.1v-20.7h8.3v20.7L146.7,1005.4z"/>
</g>
<g transform="matrix(2,0,0,2,0,0) translate(231,693) rotate(-91.8456) translate(-4.5,-15.75)">
	<path class="st1" d="M616.6,724l-4.1-4.1v-20.7h8.3v20.7L616.6,724z"/>
</g>
<g transform="matrix(2,0,0,2,0,0) translate(273,693) rotate(-68.2512) translate(-4.5,-15.75)">
	<path class="st1" d="M813.3,346.2l-4.1-4.1v-20.7h8.3V342L813.3,346.2z"/>
</g>
<g transform="matrix(2,0,0,2,0,0) translate(315,693) rotate(-52.7731) translate(-4.5,-15.75)">
	<path class="st1" d="M819.5,54.7l-4.1-4.1V29.8h8.3v20.7L819.5,54.7z"/>
</g>
<g transform="matrix(2,0,0,2,0,0) translate(357,693) rotate(-42.7211) translate(-4.5,-15.75)">
	<path class="st1" d="M752-142.7l-4.1-4.1v-20.7h8.3v20.7L752-142.7z"/>
</g>
<g transform="matrix(2,0,0,2,0,0) translate(399,693) rotate(-35.8616) translate(-4.5,-15.75)">
	<path class="st1" d="M660.7-277.9l-4.1-4.1v-20.7h8.3v20.7L660.7-277.9z"/>
</g>
<g transform="matrix(2,0,0,2,0,0) translate(441,693) rotate(-30.9238) translate(-4.5,-15.75)">
	<path class="st1" d="M562.5-374.7l-4.1-4.1v-20.7l8.3,0v20.7L562.5-374.7z"/>
</g>
<g transform="matrix(2,0,0,2,0,0) translate(483,693) rotate(-27.2066) translate(-4.5,-15.75)">
	<path class="st1" d="M463.4-446.9l-4.1-4.1v-20.7h8.3v20.7L463.4-446.9z"/>
</g>
<g transform="matrix(2,0,0,2,0,0) translate(525,693) rotate(-24.3068) translate(-4.5,-15.75)">
	<path class="st1" d="M365.2-502.7l-4.1-4.1v-20.7h8.3v20.7L365.2-502.7z"/>
</g>
<g transform="matrix(2,0,0,2,0,0) translate(567,693) rotate(-21.9798) translate(-4.5,-15.75)">
	<path class="st1" d="M268.5-547l-4.1-4.1v-20.7h8.3v20.7L268.5-547z"/>
</g>
<g transform="matrix(2,0,0,2,0,0) translate(609,693) rotate(-20.0694) translate(-4.5,-15.75)">
	<path class="st1" d="M173.4-583.2l-4.1-4.1V-608h8.3l0,20.7L173.4-583.2z"/>
</g>
<g transform="matrix(2,0,0,2,0,0) translate(651,693) rotate(-18.4716) translate(-4.5,-15.75)">
	<path class="st1" d="M79.8-613.2l-4.1-4.1V-638h8.3l0,20.7L79.8-613.2z"/>
</g>
<g transform="matrix(2,0,0,2,0,0) translate(693,693) rotate(-17.1146) translate(-4.5,-15.75)">
	<path class="st1" d="M-12.5-638.5l-4.1-4.1l0-20.7h8.3l0,20.7L-12.5-638.5z"/>
</g>
<g transform="matrix(2,0,0,2,0,0) translate(735,693) rotate(-15.9471) translate(-4.5,-15.75)">
	<path class="st1" d="M-103.7-660.2l-4.1-4.1V-685h8.3l0,20.7L-103.7-660.2z"/>
</g>
<g transform="matrix(2,0,0,2,0,0) translate(777,693) rotate(-14.9314) translate(-4.5,-15.75)">
	<path class="st1" d="M-193.8-678.9l-4.1-4.1v-20.7h8.3v20.7L-193.8-678.9z"/>
</g>
<g transform="matrix(2,0,0,2,0,0) translate(819,693) rotate(-14.0395) translate(-4.5,-15.75)">
	<path class="st1" d="M-283-695.3l-4.1-4.1v-20.7h8.3v20.7L-283-695.3z"/>
</g>
<g transform="matrix(2,0,0,2,0,0) translate(861,693) rotate(-13.2497) translate(-4.5,-15.75)">
	<path class="st1" d="M-371.5-709.8l-4.1-4.1l0-20.7h8.3v20.7L-371.5-709.8z"/>
</g>
<g transform="matrix(2,0,0,2,0,0) translate(903,693) rotate(-12.5452) translate(-4.5,-15.75)">
	<path class="st1" d="M-459.2-722.6l-4.1-4.1v-20.7h8.3v20.7L-459.2-722.6z"/>
</g>
<g transform="matrix(2,0,0,2,0,0) translate(945,693) rotate(-11.9129) translate(-4.5,-15.75)">
	<path class="st1" d="M-546.4-734.1l-4.1-4.1v-20.7h8.3v20.7L-546.4-734.1z"/>
</g>
<g transform="matrix(2,0,0,2,0,0) translate(987,693) rotate(-11.342) translate(-4.5,-15.75)">
	<path class="st1" d="M-633-744.4l-4.1-4.1v-20.7h8.3v20.7L-633-744.4z"/>
</g>
<g transform="matrix(2,0,0,2,0,0) translate(1029,693) rotate(-10.8238) translate(-4.5,-15.75)">
	<path class="st1" d="M-719.2-753.8l-4.1-4.1v-20.7h8.3v20.7L-719.2-753.8z"/>
</g>
<g transform="matrix(2,0,0,2,0,0) translate(1071,693) rotate(-10.3515) translate(-4.5,-15.75)">
	<path class="st1" d="M-805-762.3l-4.1-4.1v-20.7h8.3v20.7L-805-762.3z"/>
</g>
<g transform="matrix(2,0,0,2,0,0) translate(1113,693) rotate(-9.919) translate(-4.5,-15.75)">
	<path class="st1" d="M-890.3-770l-4.1-4.1v-20.7h8.3v20.7L-890.3-770z"/>
</g>
<g transform="matrix(2,0,0,2,0,0) translate(1155,693) rotate(-9.5216) translate(-4.5,-15.75)">
	<path class="st1" d="M-975.4-777.1l-4.1-4.1v-20.7h8.3v20.7L-975.4-777.1z"/>
</g>
<g transform="matrix(2,0,0,2,0,0) translate(1197,693) rotate(-9.155) translate(-4.5,-15.75)">
	<path class="st1" d="M-1060.1-783.7l-4.1-4.1v-20.7h8.3v20.7L-1060.1-783.7z"/>
</g>
<g transform="matrix(2,0,0,2,0,0) translate(147,735) rotate(-155.7662) translate(-4.5,-15.75)">
	<path class="st1" d="M-463.5,1024.7l-4.1-4.1v-20.7h8.3v20.7L-463.5,1024.7z"/>
</g>
<g transform="matrix(2,0,0,2,0,0) translate(189,735) rotate(-120.7838) translate(-4.5,-15.75)">
	<path class="st1" d="M232.5,1044.1l-4.1-4.1v-20.7h8.3v20.7L232.5,1044.1z"/>
</g>
<g transform="matrix(2,0,0,2,0,0) translate(231,735) rotate(-70.3354) translate(-4.5,-15.75)">
	<path class="st1" d="M904.3,424.1l-4.1-4.1v-20.7h8.3V420L904.3,424.1z"/>
</g>
<g transform="matrix(2,0,0,2,0,0) translate(273,735) rotate(-42.5716) translate(-4.5,-15.75)">
	<path class="st1" d="M924.8-94.9l-4.1-4.1v-20.7h8.3V-99L924.8-94.9z"/>
</g>
<g transform="matrix(2,0,0,2,0,0) translate(315,735) rotate(-30.1812) translate(-4.5,-15.75)">
	<path class="st1" d="M806.9-330l-4.1-4.1v-20.7h8.3v20.7L806.9-330z"/>
</g>
<g transform="matrix(2,0,0,2,0,0) translate(357,735) rotate(-23.5303) translate(-4.5,-15.75)">
	<path class="st1" d="M685.8-452.7l-4.1-4.1v-20.7h8.3v20.7L685.8-452.7z"/>
</g>
<g transform="matrix(2,0,0,2,0,0) translate(399,735) rotate(-19.3895) translate(-4.5,-15.75)">
	<path class="st1" d="M573.1-527.4l-4.1-4.1v-20.7l8.3,0v20.7L573.1-527.4z"/>
</g>
<g transform="matrix(2,0,0,2,0,0) translate(441,735) rotate(-16.5494) translate(-4.5,-15.75)">
	<path class="st1" d="M467.5-577.8l-4.1-4.1v-20.7h8.3v20.7L467.5-577.8z"/>
</g>
<g transform="matrix(2,0,0,2,0,0) translate(483,735) rotate(-14.4702) translate(-4.5,-15.75)">
	<path class="st1" d="M367.1-614.4l-4.1-4.1v-20.7h8.3v20.7L367.1-614.4z"/>
</g>
<g transform="matrix(2,0,0,2,0,0) translate(525,735) rotate(-12.8761) translate(-4.5,-15.75)">
	<path class="st1" d="M270.4-642.2l-4.1-4.1V-667h8.3v20.7L270.4-642.2z"/>
</g>
<g transform="matrix(2,0,0,2,0,0) translate(567,735) rotate(-11.6115) translate(-4.5,-15.75)">
	<path class="st1" d="M176.5-664.1l-4.1-4.1v-20.7h8.3v20.7L176.5-664.1z"/>
</g>
<g transform="matrix(2,0,0,2,0,0) translate(609,735) rotate(-10.5814) translate(-4.5,-15.75)">
	<path class="st1" d="M84.8-681.9l-4.1-4.1l0-20.7h8.3l0,20.7L84.8-681.9z"/>
</g>
<g transform="matrix(2,0,0,2,0,0) translate(651,735) rotate(-9.7249) translate(-4.5,-15.75)">
	<path class="st1" d="M-5.3-696.6l-4.1-4.1l0-20.7h8.3l0,20.7L-5.3-696.6z"/>
</g>
<g transform="matrix(2,0,0,2,0,0) translate(693,735) rotate(-9.0005) translate(-4.5,-15.75)">
	<path class="st1" d="M-94.1-709.1l-4.1-4.1l0-20.7l8.3,0v20.7L-94.1-709.1z"/>
</g>
<g transform="matrix(2,0,0,2,0,0) translate(735,735) rotate(-8.3792) translate(-4.5,-15.75)">
	<path class="st1" d="M-181.9-719.7l-4.1-4.1v-20.7h8.3l0,20.7L-181.9-719.7z"/>
</g>
<g transform="matrix(2,0,0,2,0,0) translate(777,735) rotate(-7.8402) translate(-4.5,-15.75)">
	<path class="st1" d="M-268.8-728.9l-4.1-4.1v-20.7h8.3v20.7L-268.8-728.9z"/>
</g>
<g transform="matrix(2,0,0,2,0,0) translate(819,735) rotate(-7.3677) translate(-4.5,-15.75)">
	<path class="st1" d="M-355-737l-4.1-4.1v-20.7h8.3v20.7L-355-737z"/>
</g>
<g transform="matrix(2,0,0,2,0,0) translate(861,735) rotate(-6.9501) translate(-4.5,-15.75)">
	<path class="st1" d="M-440.6-744.1l-4.1-4.1v-20.7h8.3v20.7L-440.6-744.1z"/>
</g>
<g transform="matrix(2,0,0,2,0,0) translate(903,735) rotate(-6.5781) translate(-4.5,-15.75)">
	<path class="st1" d="M-525.8-750.4l-4.1-4.1v-20.7h8.3v20.7L-525.8-750.4z"/>
</g>
<g transform="matrix(2,0,0,2,0,0) translate(945,735) rotate(-6.2445) translate(-4.5,-15.75)">
	<path class="st1" d="M-610.4-756.1l-4.1-4.1v-20.7h8.3v20.7L-610.4-756.1z"/>
</g>
<g transform="matrix(2,0,0,2,0,0) translate(987,735) rotate(-5.9436) translate(-4.5,-15.75)">
	<path class="st1" d="M-694.7-761.2l-4.1-4.1V-786h8.3v20.7L-694.7-761.2z"/>
</g>
<g transform="matrix(2,0,0,2,0,0) translate(1029,735) rotate(-5.6708) translate(-4.5,-15.75)">
	<path class="st1" d="M-778.7-765.8l-4.1-4.1v-20.7h8.3v20.7L-778.7-765.8z"/>
</g>
<g transform="matrix(2,0,0,2,0,0) translate(1071,735) rotate(-5.4222) translate(-4.5,-15.75)">
	<path class="st1" d="M-862.4-770l-4.1-4.1v-20.7h8.3v20.7L-862.4-770z"/>
</g>
<g transform="matrix(2,0,0,2,0,0) translate(1113,735) rotate(-5.1948) translate(-4.5,-15.75)">
	<path class="st1" d="M-945.9-773.9l-4.1-4.1v-20.7h8.3v20.7L-945.9-773.9z"/>
</g>
<g transform="matrix(2,0,0,2,0,0) translate(1155,735) rotate(-4.9858) translate(-4.5,-15.75)">
	<path class="st1" d="M-1029.1-777.4l-4.1-4.1v-20.7h8.3v20.7L-1029.1-777.4z"/>
</g>
<g transform="matrix(2,0,0,2,0,0) translate(1197,735) rotate(-4.7933) translate(-4.5,-15.75)">
	<path class="st1" d="M-1112.2-780.7l-4.1-4.1v-20.7h8.3v20.7L-1112.2-780.7z"/>
</g>
<rect x="-40.5" y="2746.9" class="st0" width="936.8" height="1599.4"/>
<rect x="1888.4" y="2743.5" class="st1" width="1015.8" height="1579"/>
<rect x="893.8" y="2759.4" class="st2" width="999.1" height="1579"/>
<g transform="matrix(2,0,0,2,0,0) translate(483,357) rotate(-96.0502) translate(-4.5,-15.75)">
	<path class="st2" d="M-1611.6,351.2l-5.9-5.9v-29.6h11.8v29.6L-1611.6,351.2z"/>
</g>
<g transform="matrix(2,0,0,2,0,0) translate(525,357) rotate(-90.0885) translate(-4.5,-15.75)">
	<path class="st1" d="M-1570.1,420.2l-5.9-5.9v-29.6h11.8v29.6L-1570.1,420.2z"/>
</g>
<g transform="matrix(2,0,0,2,0,0) translate(567,357) rotate(-84.6679) translate(-4.5,-15.75)">
	<path class="st1" d="M-1535.8,470.5l-5.9-5.9V435h11.8v29.6L-1535.8,470.5z"/>
</g>
<g transform="matrix(2,0,0,2,0,0) translate(609,357) rotate(-79.744) translate(-4.5,-15.75)">
	<path class="st1" d="M-1510.2,505.5l-5.9-5.9V470h11.8v29.6L-1510.2,505.5z"/>
</g>
<g transform="matrix(2,0,0,2,0,0) translate(651,357) rotate(-75.2707) translate(-4.5,-15.75)">
	<path class="st1" d="M-1493.7,528.2l-5.9-5.9v-29.6h11.8v29.6L-1493.7,528.2z"/>
</g>
<g transform="matrix(2,0,0,2,0,0) translate(693,357) rotate(-71.2031) translate(-4.5,-15.75)">
	<path class="st1" d="M-1486.3,541.2l-5.9-5.9v-29.6h11.8v29.6L-1486.3,541.2z"/>
</g>
<g transform="matrix(2,0,0,2,0,0) translate(735,357) rotate(-67.4992) translate(-4.5,-15.75)">
	<path class="st1" d="M-1487.8,546.7l-5.9-5.9v-29.6h11.8v29.6L-1487.8,546.7z"/>
</g>
<g transform="matrix(2,0,0,2,0,0) translate(777,357) rotate(-64.1201) translate(-4.5,-15.75)">
	<path class="st1" d="M-1497.5,546.4l-5.9-5.9v-29.6h11.8v29.6L-1497.5,546.4z"/>
</g>
<g transform="matrix(2,0,0,2,0,0) translate(819,357) rotate(-61.031) translate(-4.5,-15.75)">
	<path class="st1" d="M-1514.9,541.6l-5.9-5.9v-29.6h11.8v29.6L-1514.9,541.6z"/>
</g>
<g transform="matrix(2,0,0,2,0,0) translate(861,357) rotate(-58.2004) translate(-4.5,-15.75)">
	<path class="st1" d="M-1539.3,533.4l-5.9-5.9v-29.6h11.8v29.6L-1539.3,533.4z"/>
</g>
<g transform="matrix(2,0,0,2,0,0) translate(903,357) rotate(-55.6008) translate(-4.5,-15.75)">
	<path class="st2" d="M-1570.1,522.7l-5.9-5.9v-29.6h11.8v29.6L-1570.1,522.7z"/>
</g>
<g transform="matrix(2,0,0,2,0,0) translate(945,357) rotate(-53.2074) translate(-4.5,-15.75)">
	<path class="st2" d="M-1606.6,510.2l-5.9-5.9v-29.6h11.8v29.6L-1606.6,510.2z"/>
</g>
<g transform="matrix(2,0,0,2,0,0) translate(987,357) rotate(-50.9988) translate(-4.5,-15.75)">
	<path class="st2" d="M-1648.3,496.5l-5.9-5.9V461h11.8v29.6L-1648.3,496.5z"/>
</g>
<g transform="matrix(2,0,0,2,0,0) translate(1029,357) rotate(-48.9558) translate(-4.5,-15.75)">
	<path class="st2" d="M-1694.7,481.8l-5.9-5.9v-29.6h11.8v29.6L-1694.7,481.8z"/>
</g>
<g transform="matrix(2,0,0,2,0,0) translate(1071,357) rotate(-47.0617) translate(-4.5,-15.75)">
	<path class="st2" d="M-1745.2,466.6l-5.9-5.9v-29.6h11.8v29.6L-1745.2,466.6z"/>
</g>
<g transform="matrix(2,0,0,2,0,0) translate(1113,357) rotate(-45.3018) translate(-4.5,-15.75)">
	<path class="st2" d="M-1799.5,451l-5.9-5.9v-29.6h11.8v29.6L-1799.5,451z"/>
</g>
<g transform="matrix(2,0,0,2,0,0) translate(1155,357) rotate(-43.6631) translate(-4.5,-15.75)">
	<path class="st2" d="M-1857.2,435.4l-5.9-5.9v-29.6h11.8v29.6L-1857.2,435.4z"/>
</g>
<g transform="matrix(2,0,0,2,0,0) translate(1197,357) rotate(-42.134) translate(-4.5,-15.75)">
	<path class="st2" d="M-1918,419.7l-5.9-5.9v-29.6h11.8v29.6L-1918,419.7z"/>
</g>
<g transform="matrix(2,0,0,2,0,0) translate(483,399) rotate(-90.3618) translate(-4.5,-15.75)">
	<path class="st2" d="M-1475.3,510.5l-5.9-5.9V475h11.8v29.6L-1475.3,510.5z"/>
</g>
<g transform="matrix(2,0,0,2,0,0) translate(525,399) rotate(-84.3468) translate(-4.5,-15.75)">
	<path class="st1" d="M-1427.1,566.3l-5.9-5.9v-29.6h11.8v29.6L-1427.1,566.3z"/>
</g>
<g transform="matrix(2,0,0,2,0,0) translate(567,399) rotate(-78.9371) translate(-4.5,-15.75)">
	<path class="st1" d="M-1389.4,603.5l-5.9-5.9V568h11.8v29.6L-1389.4,603.5z"/>
</g>
<g transform="matrix(2,0,0,2,0,0) translate(609,399) rotate(-74.0718) translate(-4.5,-15.75)">
	<path class="st1" d="M-1362.9,626.2l-5.9-5.9v-29.6h11.8v29.6L-1362.9,626.2z"/>
</g>
<g transform="matrix(2,0,0,2,0,0) translate(651,399) rotate(-69.6914) translate(-4.5,-15.75)">
	<path class="st1" d="M-1347.6,637.8l-5.9-5.9v-29.6h11.8v29.6L-1347.6,637.8z"/>
</g>
<g transform="matrix(2,0,0,2,0,0) translate(693,399) rotate(-65.7405) translate(-4.5,-15.75)">
	<path class="st1" d="M-1342.9,641l-5.9-5.9v-29.6h11.8V635L-1342.9,641z"/>
</g>
<g transform="matrix(2,0,0,2,0,0) translate(735,399) rotate(-62.1686) translate(-4.5,-15.75)">
	<path class="st1" d="M-1348,637.8l-5.9-5.9v-29.6h11.8v29.6L-1348,637.8z"/>
</g>
<g transform="matrix(2,0,0,2,0,0) translate(777,399) rotate(-58.9306) translate(-4.5,-15.75)">
	<path class="st1" d="M-1362,630l-5.9-5.9v-29.6h11.8v29.6L-1362,630z"/>
</g>
<g transform="matrix(2,0,0,2,0,0) translate(819,399) rotate(-55.9871) translate(-4.5,-15.75)">
	<path class="st1" d="M-1384.1,618.8l-5.9-5.9v-29.6h11.8v29.6L-1384.1,618.8z"/>
</g>
<g transform="matrix(2,0,0,2,0,0) translate(861,399) rotate(-53.3034) translate(-4.5,-15.75)">
	<path class="st1" d="M-1413.4,605.3l-5.9-5.9v-29.6h11.8v29.6L-1413.4,605.3z"/>
</g>
<g transform="matrix(2,0,0,2,0,0) translate(903,399) rotate(-50.8495) translate(-4.5,-15.75)">
	<path class="st2" d="M-1449.1,590.1l-5.9-5.9v-29.6h11.8v29.6L-1449.1,590.1z"/>
</g>
<g transform="matrix(2,0,0,2,0,0) translate(945,399) rotate(-48.5992) translate(-4.5,-15.75)">
	<path class="st2" d="M-1490.5,573.9l-5.9-5.9v-29.6h11.8V568L-1490.5,573.9z"/>
</g>
<g transform="matrix(2,0,0,2,0,0) translate(987,399) rotate(-46.5297) translate(-4.5,-15.75)">
	<path class="st2" d="M-1536.9,557l-5.9-5.9v-29.6h11.8v29.6L-1536.9,557z"/>
</g>
<g transform="matrix(2,0,0,2,0,0) translate(1029,399) rotate(-44.6213) translate(-4.5,-15.75)">
	<path class="st2" d="M-1587.9,539.8l-5.9-5.9v-29.6h11.8v29.6L-1587.9,539.8z"/>
</g>
<g transform="matrix(2,0,0,2,0,0) translate(1071,399) rotate(-42.857) translate(-4.5,-15.75)">
	<path class="st2" d="M-1642.9,522.5l-5.9-5.9V487h11.8v29.6L-1642.9,522.5z"/>
</g>
<g transform="matrix(2,0,0,2,0,0) translate(1113,399) rotate(-41.2217) translate(-4.5,-15.75)">
	<path class="st2" d="M-1701.4,505.3l-5.9-5.9v-29.6h11.8v29.6L-1701.4,505.3z"/>
</g>
<g transform="matrix(2,0,0,2,0,0) translate(1155,399) rotate(-39.7024) translate(-4.5,-15.75)">
	<path class="st2" d="M-1763.2,488.2l-5.9-5.9v-29.6h11.8v29.6L-1763.2,488.2z"/>
</g>
<g transform="matrix(2,0,0,2,0,0) translate(1197,399) rotate(-38.2876) translate(-4.5,-15.75)">
	<path class="st2" d="M-1827.7,471.5l-5.9-5.9v-29.6h11.8v29.6L-1827.7,471.5z"/>
</g>
<g transform="matrix(2,0,0,2,0,0) translate(483,441) rotate(-84.0087) translate(-4.5,-15.75)">
	<path class="st2" d="M-1317.1,661.2l-5.9-5.9v-29.6h11.8v29.6L-1317.1,661.2z"/>
</g>
<g transform="matrix(2,0,0,2,0,0) translate(525,441) rotate(-77.9994) translate(-4.5,-15.75)">
	<path class="st1" d="M-1264.7,701.1l-5.9-5.9v-29.6h11.8v29.6L-1264.7,701.1z"/>
</g>
<g transform="matrix(2,0,0,2,0,0) translate(567,441) rotate(-72.6621) translate(-4.5,-15.75)">
	<path class="st1" d="M-1226.3,723.5l-5.9-5.9V688h11.8v29.6L-1226.3,723.5z"/>
</g>
<g transform="matrix(2,0,0,2,0,0) translate(609,441) rotate(-67.9153) translate(-4.5,-15.75)">
	<path class="st1" d="M-1201.8,732.9l-5.9-5.9l0-29.6h11.8V727L-1201.8,732.9z"/>
</g>
<g transform="matrix(2,0,0,2,0,0) translate(651,441) rotate(-63.6837) translate(-4.5,-15.75)">
	<path class="st1" d="M-1190.2,732.9l-5.9-5.9v-29.6h11.8V727L-1190.2,732.9z"/>
</g>
<g transform="matrix(2,0,0,2,0,0) translate(693,441) rotate(-59.8999) translate(-4.5,-15.75)">
	<path class="st1" d="M-1190.3,726.2l-5.9-5.9v-29.6h11.8v29.6L-1190.3,726.2z"/>
</g>
<g transform="matrix(2,0,0,2,0,0) translate(735,441) rotate(-56.5048) translate(-4.5,-15.75)">
	<path class="st1" d="M-1201,714.7l-5.9-5.9v-29.6h11.8v29.6L-1201,714.7z"/>
</g>
<g transform="matrix(2,0,0,2,0,0) translate(945,441) rotate(-43.8105) translate(-4.5,-15.75)">
	<path class="st2" d="M-1373.1,626.7l-5.9-5.9v-29.6h11.8v29.6L-1373.1,626.7z"/>
</g>
<g transform="matrix(2,0,0,2,0,0) translate(987,441) rotate(-41.8999) translate(-4.5,-15.75)">
	<path class="st2" d="M-1425,607.4l-5.9-5.9v-29.6h11.8v29.6L-1425,607.4z"/>
</g>
<g transform="matrix(2,0,0,2,0,0) translate(1029,441) rotate(-40.1433) translate(-4.5,-15.75)">
	<path class="st2" d="M-1481.1,588.3l-5.9-5.9v-29.6h11.8v29.6L-1481.1,588.3z"/>
</g>
<g transform="matrix(2,0,0,2,0,0) translate(1071,441) rotate(-38.5236) translate(-4.5,-15.75)">
	<path class="st2" d="M-1540.9,569.5l-5.9-5.9v-29.6h11.8v29.6L-1540.9,569.5z"/>
</g>
<g transform="matrix(2,0,0,2,0,0) translate(1113,441) rotate(-37.0259) translate(-4.5,-15.75)">
	<path class="st2" d="M-1604,551.2l-5.9-5.9v-29.6h11.8v29.6L-1604,551.2z"/>
</g>
<g transform="matrix(2,0,0,2,0,0) translate(1155,441) rotate(-35.6374) translate(-4.5,-15.75)">
	<path class="st2" d="M-1670.1,533.4l-5.9-5.9V498h11.8v29.6L-1670.1,533.4z"/>
</g>
<g transform="matrix(2,0,0,2,0,0) translate(1197,441) rotate(-34.3469) translate(-4.5,-15.75)">
	<path class="st2" d="M-1738.7,516.2l-5.9-5.9v-29.6h11.8v29.6L-1738.7,516.2z"/>
</g>
<g transform="matrix(2,0,0,2,0,0) translate(483,483) rotate(-76.9) translate(-4.5,-15.75)">
	<path class="st2" d="M-1135,797.9l-5.9-5.9v-29.6h11.8V792L-1135,797.9z"/>
</g>
<g transform="matrix(2,0,0,2,0,0) translate(525,483) rotate(-70.9806) translate(-4.5,-15.75)">
	<path class="st1" d="M-1082.1,819.5l-5.9-5.9V784h11.8v29.6L-1082.1,819.5z"/>
</g>
<g transform="matrix(2,0,0,2,0,0) translate(567,483) rotate(-65.7975) translate(-4.5,-15.75)">
	<path class="st1" d="M-1046.7,825.8l-5.9-5.9v-29.6h11.8v29.6L-1046.7,825.8z"/>
</g>
<g transform="matrix(2,0,0,2,0,0) translate(609,483) rotate(-61.2449) translate(-4.5,-15.75)">
	<path class="st1" d="M-1027.5,821.6l-5.9-5.9v-29.6h11.8v29.6L-1027.5,821.6z"/>
</g>
<g transform="matrix(2,0,0,2,0,0) translate(651,483) rotate(-57.2296) translate(-4.5,-15.75)">
	<path class="st1" d="M-1022.6,810.2l-5.9-5.9v-29.6h11.8v29.6L-1022.6,810.2z"/>
</g>
<g transform="matrix(2,0,0,2,0,0) translate(693,483) rotate(-53.6718) translate(-4.5,-15.75)">
	<path class="st1" d="M-1030.1,794.2l-5.9-5.9v-29.6h11.8v29.6L-1030.1,794.2z"/>
</g>
<g transform="matrix(2,0,0,2,0,0) translate(987,483) rotate(-37.1164) translate(-4.5,-15.75)">
	<path class="st2" d="M-1313.8,647.1l-5.9-5.9v-29.6h11.8v29.6L-1313.8,647.1z"/>
</g>
<g transform="matrix(2,0,0,2,0,0) translate(1029,483) rotate(-35.5288) translate(-4.5,-15.75)">
	<path class="st2" d="M-1375.4,626.9l-5.9-5.9v-29.6h11.8V621L-1375.4,626.9z"/>
</g>
<g transform="matrix(2,0,0,2,0,0) translate(1071,483) rotate(-34.0685) translate(-4.5,-15.75)">
	<path class="st2" d="M-1440.4,607.5l-5.9-5.9V572h11.8v29.6L-1440.4,607.5z"/>
</g>
<g transform="matrix(2,0,0,2,0,0) translate(1113,483) rotate(-32.7213) translate(-4.5,-15.75)">
	<path class="st2" d="M-1508.3,588.8l-5.9-5.9v-29.6h11.8v29.6L-1508.3,588.8z"/>
</g>
<g transform="matrix(2,0,0,2,0,0) translate(1155,483) rotate(-31.4747) translate(-4.5,-15.75)">
	<path class="st2" d="M-1578.8,570.8l-5.9-5.9v-29.6h11.8v29.6L-1578.8,570.8z"/>
</g>
<g transform="matrix(2,0,0,2,0,0) translate(1197,483) rotate(-30.3181) translate(-4.5,-15.75)">
	<path class="st2" d="M-1651.6,553.6l-5.9-5.9v-29.6h11.8v29.6L-1651.6,553.6z"/>
</g>
<g transform="matrix(2,0,0,2,0,0) translate(483,525) rotate(-68.9398) translate(-4.5,-15.75)">
	<path class="st2" d="M-927.9,913.5l-5.9-5.9V878h11.8l0,29.6L-927.9,913.5z"/>
</g>
<g transform="matrix(2,0,0,2,0,0) translate(525,525) rotate(-63.227) translate(-4.5,-15.75)">
	<path class="st1" d="M-879.7,915.2l-5.9-5.9v-29.6h11.8v29.6L-879.7,915.2z"/>
</g>
<g transform="matrix(2,0,0,2,0,0) translate(567,525) rotate(-58.3049) translate(-4.5,-15.75)">
	<path class="st1" d="M-852.1,905.1l-5.9-5.9v-29.6h11.8v29.6L-852.1,905.1z"/>
</g>
<g transform="matrix(2,0,0,2,0,0) translate(609,525) rotate(-54.0395) translate(-4.5,-15.75)">
	<path class="st1" d="M-842.2,887.8l-5.9-5.9v-29.6h11.8v29.6L-842.2,887.8z"/>
</g>
<g transform="matrix(2,0,0,2,0,0) translate(651,525) rotate(-50.3199) translate(-4.5,-15.75)">
	<path class="st1" d="M-847.2,866.1l-5.9-5.9v-29.6h11.8v29.6L-847.2,866.1z"/>
</g>
<g transform="matrix(2,0,0,2,0,0) translate(693,525) rotate(-47.0552) translate(-4.5,-15.75)">
	<path class="st1" d="M-864.8,842.1l-5.9-5.9v-29.6h11.8v29.6L-864.8,842.1z"/>
</g>
<g transform="matrix(2,0,0,2,0,0) translate(987,525) rotate(-32.1893) translate(-4.5,-15.75)">
	<path class="st2" d="M-1204.7,675.8l-5.9-5.9v-29.6h11.8v29.6L-1204.7,675.8z"/>
</g>
<g transform="matrix(2,0,0,2,0,0) translate(1029,525) rotate(-30.7873) translate(-4.5,-15.75)">
	<path class="st2" d="M-1272.1,655.5l-5.9-5.9V620h11.8v29.6L-1272.1,655.5z"/>
</g>
<g transform="matrix(2,0,0,2,0,0) translate(1071,525) rotate(-29.5008) translate(-4.5,-15.75)">
	<path class="st2" d="M-1342.5,636.2l-5.9-5.9l0-29.6h11.8v29.6L-1342.5,636.2z"/>
</g>
<g transform="matrix(2,0,0,2,0,0) translate(1113,525) rotate(-28.3163) translate(-4.5,-15.75)">
	<path class="st2" d="M-1415.4,617.8l-5.9-5.9v-29.6h11.8v29.6L-1415.4,617.8z"/>
</g>
<g transform="matrix(2,0,0,2,0,0) translate(1155,525) rotate(-27.2222) translate(-4.5,-15.75)">
	<path class="st2" d="M-1490.4,600.3l-5.9-5.9v-29.6h11.8v29.6L-1490.4,600.3z"/>
</g>
<g transform="matrix(2,0,0,2,0,0) translate(1197,525) rotate(-26.2089) translate(-4.5,-15.75)">
	<path class="st2" d="M-1567.4,583.8l-5.9-5.9v-29.6h11.8v29.6L-1567.4,583.8z"/>
</g>
<g transform="matrix(2,0,0,2,0,0) translate(483,567) rotate(-60.0354) translate(-4.5,-15.75)">
	<path class="st2" d="M-696.7,998.7l-5.9-5.9v-29.6h11.8v29.6L-696.7,998.7z"/>
</g>
<g transform="matrix(2,0,0,2,0,0) translate(525,567) rotate(-54.6866) translate(-4.5,-15.75)">
	<path class="st1" d="M-660.1,980.6l-5.9-5.9v-29.6h11.8v29.6L-660.1,980.6z"/>
</g>
<g transform="matrix(2,0,0,2,0,0) translate(567,567) rotate(-50.1593) translate(-4.5,-15.75)">
	<path class="st1" d="M-645.8,955.5l-5.9-5.9l0-29.6h11.8l0,29.6L-645.8,955.5z"/>
</g>
<g transform="matrix(2,0,0,2,0,0) translate(609,567) rotate(-46.2919) translate(-4.5,-15.75)">
	<path class="st1" d="M-649.5,927l-5.9-5.9v-29.6h11.8v29.6L-649.5,927z"/>
</g>
<g transform="matrix(2,0,0,2,0,0) translate(651,567) rotate(-42.9581) translate(-4.5,-15.75)">
	<path class="st1" d="M-667.7,897.3l-5.9-5.9v-29.6h11.8v29.6L-667.7,897.3z"/>
</g>
<g transform="matrix(2,0,0,2,0,0) translate(693,567) rotate(-40.0597) translate(-4.5,-15.75)">
	<path class="st1" d="M-697.7,867.6l-5.9-5.9v-29.6h11.8v29.6L-697.7,867.6z"/>
</g>
<g transform="matrix(2,0,0,2,0,0) translate(987,567) rotate(-27.1312) translate(-4.5,-15.75)">
	<path class="st2" d="M-1099.3,693.5l-5.9-5.9V658h11.8v29.6L-1099.3,693.5z"/>
</g>
<g transform="matrix(2,0,0,2,0,0) translate(1029,567) rotate(-25.9306) translate(-4.5,-15.75)">
	<path class="st2" d="M-1172.7,674l-5.9-5.9v-29.6h11.8v29.6L-1172.7,674z"/>
</g>
<g transform="matrix(2,0,0,2,0,0) translate(1071,567) rotate(-24.8313) translate(-4.5,-15.75)">
	<path class="st2" d="M-1248.4,655.6l-5.9-5.9v-29.6h11.8v29.6L-1248.4,655.6z"/>
</g>
<g transform="matrix(2,0,0,2,0,0) translate(1113,567) rotate(-23.821) translate(-4.5,-15.75)">
	<path class="st2" d="M-1326.2,638.4l-5.9-5.9v-29.6h11.8v29.6L-1326.2,638.4z"/>
</g>
<g transform="matrix(2,0,0,2,0,0) translate(1155,567) rotate(-22.8894) translate(-4.5,-15.75)">
	<path class="st2" d="M-1405.7,622.1l-5.9-5.9v-29.6h11.8v29.6L-1405.7,622.1z"/>
</g>
<g transform="matrix(2,0,0,2,0,0) translate(1197,567) rotate(-22.0277) translate(-4.5,-15.75)">
	<path class="st2" d="M-1486.8,606.8l-5.9-5.9v-29.6h11.8v29.6L-1486.8,606.8z"/>
</g>
<g transform="matrix(2,0,0,2,0,0) translate(483,609) rotate(-50.1138) translate(-4.5,-15.75)">
	<path class="st2" d="M-445.9,1042.8l-5.9-5.9v-29.6h11.8v29.6L-445.9,1042.8z"/>
</g>
<g transform="matrix(2,0,0,2,0,0) translate(525,609) rotate(-45.332) translate(-4.5,-15.75)">
	<path class="st1" d="M-428.7,1007.7l-5.9-5.9v-29.6h11.8v29.6L-428.7,1007.7z"/>
</g>
<g transform="matrix(2,0,0,2,0,0) translate(567,609) rotate(-41.3596) translate(-4.5,-15.75)">
	<path class="st1" d="M-433.3,971.2l-5.9-5.9l0-29.6h11.8l0,29.6L-433.3,971.2z"/>
</g>
<g transform="matrix(2,0,0,2,0,0) translate(609,609) rotate(-38.0151) translate(-4.5,-15.75)">
	<path class="st1" d="M-454.6,935.3l-5.9-5.9v-29.6h11.8l0,29.6L-454.6,935.3z"/>
</g>
<g transform="matrix(2,0,0,2,0,0) translate(651,609) rotate(-35.1647) translate(-4.5,-15.75)">
	<path class="st1" d="M-488.8,901.1l-5.9-5.9v-29.6h11.8v29.6L-488.8,901.1z"/>
</g>
<g transform="matrix(2,0,0,2,0,0) translate(693,609) rotate(-32.7086) translate(-4.5,-15.75)">
	<path class="st1" d="M-533,868.9l-5.9-5.9v-29.6h11.8V863L-533,868.9z"/>
</g>
<g transform="matrix(2,0,0,2,0,0) translate(735,609) rotate(-30.5715) translate(-4.5,-15.75)">
	<path class="st1" d="M-585.3,838.9l-5.9-5.9l0-29.6h11.8l0,29.6L-585.3,838.9z"/>
</g>
<g transform="matrix(2,0,0,2,0,0) translate(945,609) rotate(-23.0397) translate(-4.5,-15.75)">
	<path class="st2" d="M-922.1,719.2l-5.9-5.9v-29.6h11.8l0,29.6L-922.1,719.2z"/>
</g>
<g transform="matrix(2,0,0,2,0,0) translate(987,609) rotate(-21.9578) translate(-4.5,-15.75)">
	<path class="st2" d="M-999.2,700.2l-5.9-5.9v-29.6h11.8v29.6L-999.2,700.2z"/>
</g>
<g transform="matrix(2,0,0,2,0,0) translate(1029,609) rotate(-20.9732) translate(-4.5,-15.75)">
	<path class="st2" d="M-1078.4,682.6l-5.9-5.9v-29.6h11.8v29.6L-1078.4,682.6z"/>
</g>
<g transform="matrix(2,0,0,2,0,0) translate(1071,609) rotate(-20.0731) translate(-4.5,-15.75)">
	<path class="st2" d="M-1159.4,666.2l-5.9-5.9v-29.6h11.8v29.6L-1159.4,666.2z"/>
</g>
<g transform="matrix(2,0,0,2,0,0) translate(1113,609) rotate(-19.2473) translate(-4.5,-15.75)">
	<path class="st2" d="M-1241.9,650.8l-5.9-5.9v-29.6h11.8v29.6L-1241.9,650.8z"/>
</g>
<g transform="matrix(2,0,0,2,0,0) translate(1155,609) rotate(-18.4868) translate(-4.5,-15.75)">
	<path class="st2" d="M-1325.8,636.5l-5.9-5.9V601h11.8v29.6L-1325.8,636.5z"/>
</g>
<g transform="matrix(2,0,0,2,0,0) translate(1197,609) rotate(-17.7843) translate(-4.5,-15.75)">
	<path class="st2" d="M-1410.9,623.1l-5.9-5.9v-29.6h11.8v29.6L-1410.9,623.1z"/>
</g>
<g transform="matrix(2,0,0,2,0,0) translate(483,651) rotate(-39.1503) translate(-4.5,-15.75)">
	<path class="st2" d="M-184.9,1034.7l-5.9-5.9v-29.6h11.8v29.6L-184.9,1034.7z"/>
</g>
<g transform="matrix(2,0,0,2,0,0) translate(525,651) rotate(-35.1788) translate(-4.5,-15.75)">
	<path class="st1" d="M-194.7,989.5l-5.9-5.9V954h11.8v29.6L-194.7,989.5z"/>
</g>
<g transform="matrix(2,0,0,2,0,0) translate(567,651) rotate(-31.9398) translate(-4.5,-15.75)">
	<path class="st1" d="M-223,947.8l-5.9-5.9v-29.6h11.8v29.6L-223,947.8z"/>
</g>
<g transform="matrix(2,0,0,2,0,0) translate(609,651) rotate(-29.2498) translate(-4.5,-15.75)">
	<path class="st1" d="M-264.8,910l-5.9-5.9v-29.6h11.8v29.6L-264.8,910z"/>
</g>
<g transform="matrix(2,0,0,2,0,0) translate(651,651) rotate(-26.9809) translate(-4.5,-15.75)">
	<path class="st1" d="M-316.6,875.9l-5.9-5.9v-29.6h11.8V870L-316.6,875.9z"/>
</g>
<g transform="matrix(2,0,0,2,0,0) translate(693,651) rotate(-25.0415) translate(-4.5,-15.75)">
	<path class="st1" d="M-376,845.1l-5.9-5.9v-29.6h11.8v29.6L-376,845.1z"/>
</g>
<g transform="matrix(2,0,0,2,0,0) translate(735,651) rotate(-23.3645) translate(-4.5,-15.75)">
	<path class="st1" d="M-441.4,817.4l-5.9-5.9v-29.6l11.8,0v29.6L-441.4,817.4z"/>
</g>
<g transform="matrix(2,0,0,2,0,0) translate(777,651) rotate(-21.9) translate(-4.5,-15.75)">
	<path class="st1" d="M-511.5,792.3l-5.9-5.9v-29.6h11.8v29.6L-511.5,792.3z"/>
</g>
<g transform="matrix(2,0,0,2,0,0) translate(819,651) rotate(-20.6099) translate(-4.5,-15.75)">
	<path class="st1" d="M-585.3,769.5l-5.9-5.9V734h11.8v29.6L-585.3,769.5z"/>
</g>
<g transform="matrix(2,0,0,2,0,0) translate(861,651) rotate(-19.4645) translate(-4.5,-15.75)">
	<path class="st1" d="M-662.1,748.8l-5.9-5.9v-29.6h11.8v29.6L-662.1,748.8z"/>
</g>
<g transform="matrix(2,0,0,2,0,0) translate(903,651) rotate(-18.4408) translate(-4.5,-15.75)">
	<path class="st2" d="M-741.5,729.8l-5.9-5.9l0-29.6h11.8v29.6L-741.5,729.8z"/>
</g>
<g transform="matrix(2,0,0,2,0,0) translate(945,651) rotate(-17.5202) translate(-4.5,-15.75)">
	<path class="st2" d="M-822.9,712.5l-5.9-5.9V677h11.8v29.6L-822.9,712.5z"/>
</g>
<g transform="matrix(2,0,0,2,0,0) translate(987,651) rotate(-16.6877) translate(-4.5,-15.75)">
	<path class="st2" d="M-906.1,696.5l-5.9-5.9V661h11.8v29.6L-906.1,696.5z"/>
</g>
<g transform="matrix(2,0,0,2,0,0) translate(1029,651) rotate(-15.9314) translate(-4.5,-15.75)">
	<path class="st2" d="M-990.7,681.8l-5.9-5.9v-29.6h11.8v29.6L-990.7,681.8z"/>
</g>
<g transform="matrix(2,0,0,2,0,0) translate(1071,651) rotate(-15.2411) translate(-4.5,-15.75)">
	<path class="st2" d="M-1076.6,668.2l-5.9-5.9v-29.6h11.8v29.6L-1076.6,668.2z"/>
</g>
<g transform="matrix(2,0,0,2,0,0) translate(1113,651) rotate(-14.6084) translate(-4.5,-15.75)">
	<path class="st2" d="M-1163.6,655.6l-5.9-5.9v-29.6h11.8v29.6L-1163.6,655.6z"/>
</g>
<g transform="matrix(2,0,0,2,0,0) translate(1155,651) rotate(-14.0266) translate(-4.5,-15.75)">
	<path class="st2" d="M-1251.6,643.9l-5.9-5.9v-29.6h11.8V638L-1251.6,643.9z"/>
</g>
<g transform="matrix(2,0,0,2,0,0) translate(1197,651) rotate(-13.4895) translate(-4.5,-15.75)">
	<path class="st2" d="M-1340.3,632.9l-5.9-5.9v-29.6h11.8V627L-1340.3,632.9z"/>
</g>
<g transform="matrix(2,0,0,2,0,0) translate(483,693) rotate(-27.2066) translate(-4.5,-15.75)">
	<path class="st2" d="M70.2,965.9l-5.9-5.9l0-29.6h11.8l0,29.6L70.2,965.9z"/>
</g>
<g transform="matrix(2,0,0,2,0,0) translate(525,693) rotate(-24.3068) translate(-4.5,-15.75)">
	<path class="st1" d="M28.6,921.4l-5.9-5.9l0-29.6h11.8l0,29.6L28.6,921.4z"/>
</g>
<g transform="matrix(2,0,0,2,0,0) translate(567,693) rotate(-21.9798) translate(-4.5,-15.75)">
	<path class="st1" d="M-25.6,883.3l-5.9-5.9l0-29.6h11.8l0,29.6L-25.6,883.3z"/>
</g>
<g transform="matrix(2,0,0,2,0,0) translate(609,693) rotate(-20.0694) translate(-4.5,-15.75)">
	<path class="st1" d="M-88.6,850.5l-5.9-5.9V815h11.8v29.6L-88.6,850.5z"/>
</g>
<g transform="matrix(2,0,0,2,0,0) translate(651,693) rotate(-18.4716) translate(-4.5,-15.75)">
	<path class="st1" d="M-158.1,822l-5.9-5.9v-29.6h11.8v29.6L-158.1,822z"/>
</g>
<g transform="matrix(2,0,0,2,0,0) translate(693,693) rotate(-17.1146) translate(-4.5,-15.75)">
	<path class="st1" d="M-232.3,797l-5.9-5.9l0-29.6h11.8v29.6L-232.3,797z"/>
</g>
<g transform="matrix(2,0,0,2,0,0) translate(735,693) rotate(-15.9471) translate(-4.5,-15.75)">
	<path class="st1" d="M-310.2,775l-5.9-5.9v-29.6h11.8l0,29.6L-310.2,775z"/>
</g>
<g transform="matrix(2,0,0,2,0,0) translate(777,693) rotate(-14.9314) translate(-4.5,-15.75)">
	<path class="st1" d="M-390.9,755.4l-5.9-5.9l0-29.6h11.8v29.6L-390.9,755.4z"/>
</g>
<g transform="matrix(2,0,0,2,0,0) translate(819,693) rotate(-14.0395) translate(-4.5,-15.75)">
	<path class="st1" d="M-474,737.9l-5.9-5.9v-29.6h11.8V732L-474,737.9z"/>
</g>
<g transform="matrix(2,0,0,2,0,0) translate(861,693) rotate(-13.2497) translate(-4.5,-15.75)">
	<path class="st1" d="M-558.8,722.2l-5.9-5.9v-29.6h11.8v29.6L-558.8,722.2z"/>
</g>
<g transform="matrix(2,0,0,2,0,0) translate(903,693) rotate(-12.5452) translate(-4.5,-15.75)">
	<path class="st2" d="M-645.2,707.9l-5.9-5.9v-29.6h11.8V702L-645.2,707.9z"/>
</g>
<g transform="matrix(2,0,0,2,0,0) translate(945,693) rotate(-11.9129) translate(-4.5,-15.75)">
	<path class="st2" d="M-732.8,695l-5.9-5.9v-29.6h11.8v29.6L-732.8,695z"/>
</g>
<g transform="matrix(2,0,0,2,0,0) translate(987,693) rotate(-11.342) translate(-4.5,-15.75)">
	<path class="st2" d="M-821.5,683.2l-5.9-5.9v-29.6h11.8v29.6L-821.5,683.2z"/>
</g>
<g transform="matrix(2,0,0,2,0,0) translate(1029,693) rotate(-10.8238) translate(-4.5,-15.75)">
	<path class="st2" d="M-911.1,672.4l-5.9-5.9v-29.6h11.8v29.6L-911.1,672.4z"/>
</g>
<g transform="matrix(2,0,0,2,0,0) translate(1071,693) rotate(-10.3515) translate(-4.5,-15.75)">
	<path class="st2" d="M-1001.4,662.5l-5.9-5.9V627h11.8v29.6L-1001.4,662.5z"/>
</g>
<g transform="matrix(2,0,0,2,0,0) translate(1113,693) rotate(-9.919) translate(-4.5,-15.75)">
	<path class="st2" d="M-1092.4,653.3l-5.9-5.9v-29.6h11.8v29.6L-1092.4,653.3z"/>
</g>
<g transform="matrix(2,0,0,2,0,0) translate(1155,693) rotate(-9.5216) translate(-4.5,-15.75)">
	<path class="st2" d="M-1183.9,644.8l-5.9-5.9v-29.6h11.8v29.6L-1183.9,644.8z"/>
</g>
<g transform="matrix(2,0,0,2,0,0) translate(1197,693) rotate(-9.155) translate(-4.5,-15.75)">
	<path class="st2" d="M-1275.9,636.9l-5.9-5.9v-29.6h11.8V631L-1275.9,636.9z"/>
</g>
<g>
	<g>
		<path class="st3" d="M792.4,3424.5c0.2,1.6,0.5,5.1-1.3,7.6c-1.6,2.1-4,2.6-5.2,2.7c-1.1,0.1-2.5,0.1-3.8-0.5
			c-1.3-0.6-2-1.5-2.4-2.2c-0.1,1.4-0.6,3.1-1.5,4.2c-0.8,1.1-2.4,2.2-4.9,2.5c-2.9,0.3-4.9-0.6-6.1-1.6c-2.6-2.1-3.2-5.6-3.4-7.4
			l-1.3-10.9l29-3.4L792.4,3424.5z M768.4,3425l0.2,1.6c0.2,1.7,0.5,3.7,1.8,4.8c0.6,0.5,1.5,0.8,2.5,0.7c1.2-0.1,1.9-0.7,2.2-1.2
			c0.9-1.3,0.7-3.6,0.5-4.9l-0.2-1.8L768.4,3425z M780.4,3423.6l0.1,1.1c0.1,0.9,0.4,2.4,1.2,3.3c0.5,0.6,1.4,1,2.7,0.9
			c1.3-0.1,2-0.8,2.3-1.4c0.6-1,0.5-2.3,0.3-3.6l-0.1-1L780.4,3423.6z"/>
		<path class="st3" d="M776,3462.6l-2.8-10.7l-5.9-0.8l-1.8-6.8l31.2,4l1.6,6l-25.3,18.6l-1.8-6.8L776,3462.6z M780.5,3459.5l8.6-6
			l-10.4-1L780.5,3459.5z"/>
		<path class="st3" d="M805.6,3475.4c1.5,3.5,2.6,7.5,0.9,12.2c-1.3,3.4-3.7,6.2-7.9,8c-4.2,1.8-7.9,1.7-11.1,0.4
			c-5.3-2.1-7.6-6.6-8.6-8.8l-3.8-8.7l26.8-11.6L805.6,3475.4z M783.1,3482.5l0.7,1.6c0.6,1.3,1.9,4,4.4,5.3
			c1.8,0.9,4.6,1.1,7.6-0.2c2.9-1.3,4.2-3.2,4.8-4.7c1.1-2.9,0.3-5.6-0.5-7.5l-0.7-1.6L783.1,3482.5z"/>
		<path class="st3" d="M794.5,3518.2l23.7-17l3.4,4.8l-6,23.8l15.3-11l3.9,5.5l-23.7,17l-3.4-4.8l6.1-23.9l-15.3,11L794.5,3518.2z"
			/>
		<path class="st3" d="M845.5,3543.6l-6.8-7l-4.1,3.9l6.4,6.7l-4.1,3.9l-6.4-6.7l-4.7,4.5l6.8,7l-4.1,3.9l-11.4-11.9l21-20.2
			l11.4,11.9L845.5,3543.6z"/>
		<path class="st3" d="M861,3571.4c-1.7,2.2-4.2,4.7-8.3,5.2c-4,0.5-6.8-1.2-9.2-3.1s-4.6-4.3-5-8.3c-0.4-4.1,1.5-7,3.2-9.2
			l10.8-13.5l5.3,4.2l-10.7,13.4c-0.8,1-2.1,2.7-1.9,4.8c0.1,1.7,1.2,2.9,2.2,3.7c1,0.8,2.4,1.6,4.1,1.3c2.1-0.3,3.5-1.9,4.3-2.9
			l10.7-13.4l5.3,4.2L861,3571.4z"/>
		<path class="st3" d="M885.2,3574.4c-0.9-2.8-2.4-3.9-3.1-4.3c-0.8-0.5-1.8-0.9-3-0.6c-0.6,0.2-1.2,0.6-1.6,1.2
			c-0.4,0.6-0.4,1.2-0.3,1.7c0.3,0.9,1,1.7,2.3,3.3l1.5,1.8c0.8,1.1,1.9,2.4,2.3,3.9c0.6,2.3-0.1,4.3-0.9,5.8
			c-1.5,2.6-3.8,4.3-5.9,4.9c-3.6,1-7-0.7-8.6-1.7c-1.8-1.1-3.2-2.3-4.3-4c-0.9-1.4-1.7-3.4-2.1-4.9l5.5-2.4c0.3,1,0.8,2.5,1.2,3.3
			c0.6,1.2,1.5,2.1,2.6,2.8c0.8,0.4,1.9,0.9,3.1,0.7c0.7-0.1,1.5-0.6,2.1-1.5c0.5-0.8,0.5-1.6,0.2-2.3c-0.3-1-1.6-2.4-2.1-3.1
			l-1.6-1.9c-0.9-1.1-2-2.4-2.3-4.1c-0.5-2.2,0.4-4.1,1.1-5.3c1.3-2.2,3.1-3.7,5.5-4.3c2.8-0.8,5.2,0,7.6,1.4c1.7,1,4.3,3,6,6.9
			L885.2,3574.4z"/>
		<path class="st3" d="M902.8,3581.2l-9.7,21.4l-6.1-2.8l9.7-21.4l-5.8-2.6l2.3-5.2l17.7,8l-2.3,5.2L902.8,3581.2z"/>
		<path class="st3" d="M920.5,3606.7l-10.5-3.3l-3.8,4.6l-6.7-2.1l20-24.2l5.9,1.9l2.1,31.3l-6.7-2.1L920.5,3606.7z M920.3,3601.2
			l-0.5-10.4l-6.4,8.2L920.3,3601.2z"/>
		<path class="st3" d="M947.2,3588.5c3.8,0.6,7.7,1.8,10.7,5.8c2.2,2.9,3.2,6.5,2.5,11c-0.7,4.5-2.8,7.6-5.5,9.6
			c-4.6,3.4-9.6,2.9-12,2.5l-9.3-1.5l4.5-28.8L947.2,3588.5z M941.1,3611.3l1.8,0.3c1.4,0.2,4.4,0.6,6.9-0.9
			c1.8-1.1,3.4-3.3,3.9-6.5c0.5-3.1-0.4-5.3-1.4-6.6c-1.8-2.5-4.6-3.2-6.6-3.6l-1.8-0.3L941.1,3611.3z"/>
		<path class="st3" d="M976.5,3596.9l-0.7,23.5l-6.7-0.2l0.7-23.5l-6.3-0.2l0.2-5.7l19.4,0.6l-0.2,5.7L976.5,3596.9z"/>
		<path class="st3" d="M1015.3,3611.9l-10.9,1.6l-1.4,5.8l-6.9,1l7.5-30.5l6.1-0.9l15.5,27.2l-6.9,1L1015.3,3611.9z M1012.7,3607.1
			l-4.9-9.2l-2.2,10.2L1012.7,3607.1z"/>
		<path class="st3" d="M1031.3,3614.6l-8.8-27.8l5.6-1.8l20.8,13.2l-5.7-17.9l6.4-2l8.8,27.8l-5.6,1.8l-20.8-13.2l5.7,18
			L1031.3,3614.6z"/>
		<path class="st3" d="M1070.6,3567.6c3.3-1.9,7.1-3.5,12-2.2c3.5,0.9,6.6,3,8.8,7c2.3,4,2.6,7.6,1.7,10.9c-1.5,5.5-5.7,8.3-7.8,9.5
			l-8.2,4.7l-14.5-25.3L1070.6,3567.6z M1080.2,3589.2l1.6-0.9c1.2-0.7,3.8-2.3,4.8-5c0.7-1.9,0.6-4.7-1-7.5
			c-1.6-2.7-3.7-3.8-5.2-4.3c-3-0.8-5.6,0.3-7.4,1.4l-1.6,0.9L1080.2,3589.2z"/>
		<path class="st3" d="M1103.6,3552l-7.8,5.9l3.4,4.5l7.4-5.6l3.4,4.5l-7.4,5.6l3.9,5.1l7.8-5.9l3.4,4.5l-13.1,10l-17.7-23.2
			l13.1-10L1103.6,3552z"/>
		<path class="st3" d="M1110.7,3537.7c2.7-2.6,5.2-3.3,7.1-3.4c1.7,0,4.1,0.6,6.4,2.9c1.3,1.3,2.6,3.2,2.5,5.8c0,1.4-0.5,3-1.4,4.4
			l14.8,2.3l-5.9,5.7l-13.7-2.7l8,8.2l-4.8,4.7l-20.4-20.9L1110.7,3537.7z M1117.5,3549.6l1.1-1.1c0.9-0.9,2-2.1,2-3.7
			c0-0.7-0.2-1.8-1.2-2.8c-1.2-1.2-2.3-1.3-3-1.2c-1.4,0.2-2.7,1.3-3.3,1.9l-1.1,1.1L1117.5,3549.6z"/>
		<path class="st3" d="M1141.9,3511.4c-2.9,0.6-4.1,2.1-4.6,2.8c-0.5,0.7-1.1,1.7-0.8,2.9c0.1,0.6,0.5,1.2,1.1,1.7
			c0.6,0.4,1.1,0.5,1.7,0.4c0.9-0.2,1.7-0.9,3.5-2l1.9-1.3c1.1-0.8,2.6-1.7,4.1-1.9c2.3-0.4,4.3,0.4,5.7,1.4c2.5,1.8,4,4.1,4.4,6.3
			c0.7,3.7-1.3,6.9-2.4,8.5c-1.2,1.7-2.5,3-4.4,4c-1.5,0.8-3.6,1.4-5.1,1.6l-1.9-5.6c1-0.2,2.5-0.5,3.4-0.9c1.2-0.5,2.2-1.3,3-2.4
			c0.5-0.7,1.1-1.8,1-3.1c-0.1-0.7-0.4-1.6-1.3-2.2c-0.8-0.6-1.5-0.6-2.3-0.4c-1,0.3-2.6,1.3-3.3,1.8l-2.1,1.5
			c-1.2,0.8-2.6,1.7-4.2,2c-2.2,0.3-4-0.7-5.1-1.5c-2.1-1.5-3.4-3.4-3.9-5.9c-0.5-2.9,0.4-5.2,2-7.4c1.2-1.6,3.3-4.1,7.4-5.4
			L1141.9,3511.4z"/>
		<path class="st3" d="M1168.9,3497.8l-5.2,9.7l3.8,4.6l-3.3,6.2l-20.2-24.1l2.9-5.4l31.2,3.6l-3.3,6.2L1168.9,3497.8z M1163.4,3497
			l-10.3-1.4l6.9,7.8L1163.4,3497z"/>
		<path class="st3" d="M1180.8,3468.6l-3.7,10.4l4.5,3.9l-2.3,6.6l-23.6-20.8l2.1-5.8l31.3-1.1l-2.3,6.6L1180.8,3468.6z
			 M1175.3,3468.6l-10.4,0.1l8,6.7L1175.3,3468.6z"/>
		<path class="st3" d="M1163.1,3443.4l22.9,5l1.9-8.8l5.6,1.2l-3.4,15.4l-28.5-6.2L1163.1,3443.4z"/>
		<path class="st3" d="M1172.8,3416.2l-1.1,9.7l5.6,0.6l1-9.2l5.6,0.6l-1,9.2l6.4,0.7l1.1-9.7l5.7,0.6l-1.8,16.4l-29-3.2l1.8-16.4
			L1172.8,3416.2z"/>
	</g>
	<path class="st3" d="M1062.9,3280.8v91.3l-41.8-41.8V3239l-41.8-41.8l-41.8,41.8v91.3l-41.8,41.8v-91.3H826v129.3h0.1
		c2.3,82.7,70,149,153.3,149s151-66.3,153.3-149h0.1v-129.3H1062.9z M1024.9,3465l-25.3,25.3c-0.4,0.4-0.8,0.9-1.2,1.3
		c-5,5-11.4,7.6-17.9,7.9c-0.4,0-0.9,0-1.3,0c-6.9,0-13.9-2.6-19.2-7.9c-0.4-0.4-0.8-0.9-1.2-1.3l-25.2-25.2
		c-10.6-10.6-10.6-27.7,0-38.3c10.6-10.6,27.7-10.6,38.3,0l7.3,7.3l7.3-7.3c10.6-10.6,27.7-10.6,38.3,0
		C1035.5,3437.2,1035.5,3454.4,1024.9,3465z"/>
</g>
<g>
	<g>
		<path class="st3" d="M843.2,513.3c0.2,1.3,0.4,4.3-1.1,6.4c-1.3,1.7-3.3,2.2-4.4,2.3c-0.9,0.1-2.1,0.1-3.2-0.4
			c-1.1-0.5-1.7-1.3-2-1.8c0,1.2-0.5,2.6-1.2,3.5c-0.7,0.9-2,1.8-4.2,2.1c-2.4,0.3-4.1-0.5-5.1-1.3c-2.2-1.8-2.7-4.7-2.8-6.2
			l-1.1-9.1l24.3-2.9L843.2,513.3z M823.1,513.7l0.2,1.3c0.2,1.4,0.4,3.1,1.5,4c0.5,0.5,1.3,0.7,2.1,0.6c1-0.1,1.6-0.6,1.9-1
			c0.8-1.1,0.6-3,0.4-4.1l-0.2-1.5L823.1,513.7z M833.1,512.6l0.1,0.9c0.1,0.8,0.3,2,1,2.8c0.4,0.5,1.2,0.9,2.3,0.7
			c1.1-0.1,1.7-0.7,1.9-1.2c0.5-0.9,0.4-2,0.3-3l-0.1-0.9L833.1,512.6z"/>
		<path class="st3" d="M829.4,545.2l-2.4-8.9l-4.9-0.6l-1.5-5.7l26.2,3.3l1.3,5l-21.2,15.6l-1.5-5.7L829.4,545.2z M833.2,542.6
			l7.2-5l-8.7-0.9L833.2,542.6z"/>
		<path class="st3" d="M854.3,556c1.3,3,2.2,6.3,0.7,10.2c-1.1,2.8-3.1,5.2-6.6,6.7c-3.5,1.5-6.6,1.4-9.3,0.4
			c-4.5-1.7-6.4-5.5-7.2-7.4l-3.1-7.3l22.5-9.7L854.3,556z M835.3,561.9l0.6,1.4c0.5,1.1,1.6,3.4,3.7,4.5c1.5,0.8,3.9,0.9,6.4-0.2
			c2.4-1,3.6-2.7,4-4c1-2.4,0.2-4.7-0.4-6.3L849,556L835.3,561.9z"/>
		<path class="st3" d="M844.9,591.9l19.9-14.3l2.9,4l-5.1,20l12.8-9.2l3.3,4.6l-19.9,14.3l-2.9-4l5.1-20l-12.9,9.2L844.9,591.9z"/>
		<path class="st3" d="M887.8,613.2l-5.7-5.9l-3.4,3.3l5.4,5.6l-3.4,3.3l-5.4-5.6l-3.9,3.8l5.7,5.9l-3.4,3.3l-9.6-10l17.7-16.9
			l9.6,10L887.8,613.2z"/>
		<path class="st3" d="M900.7,636.6c-1.5,1.8-3.5,3.9-7,4.4c-3.3,0.4-5.7-1-7.7-2.6c-2-1.6-3.9-3.6-4.2-6.9
			c-0.3-3.5,1.2-5.9,2.7-7.7l9-11.3l4.4,3.5l-8.9,11.2c-0.7,0.8-1.7,2.3-1.6,4c0.1,1.4,1,2.5,1.9,3.1c0.8,0.7,2,1.3,3.5,1.1
			c1.7-0.2,2.9-1.6,3.6-2.4l8.9-11.2l4.4,3.5L900.7,636.6z"/>
		<path class="st3" d="M921.1,639c-0.7-2.4-2-3.3-2.6-3.6c-0.7-0.4-1.5-0.8-2.5-0.5c-0.5,0.1-1,0.5-1.3,1c-0.3,0.5-0.4,1-0.2,1.4
			c0.2,0.8,0.8,1.4,1.9,2.8l1.2,1.5c0.7,0.9,1.6,2,1.9,3.3c0.5,1.9,0,3.6-0.8,4.8c-1.3,2.2-3.2,3.6-5,4.1c-3,0.9-5.8-0.6-7.2-1.4
			c-1.5-0.9-2.7-1.9-3.6-3.4c-0.8-1.2-1.4-2.9-1.7-4.1l4.6-2c0.2,0.9,0.6,2.1,1,2.8c0.5,1,1.2,1.7,2.2,2.3c0.6,0.4,1.6,0.8,2.6,0.6
			c0.6-0.1,1.3-0.5,1.8-1.3c0.4-0.7,0.4-1.3,0.2-1.9c-0.3-0.8-1.3-2.1-1.8-2.6l-1.4-1.6c-0.8-0.9-1.6-2-1.9-3.4
			c-0.4-1.8,0.3-3.4,0.9-4.4c1.1-1.9,2.6-3.1,4.6-3.6c2.4-0.6,4.4,0,6.3,1.2c1.5,0.9,3.6,2.5,5,5.8L921.1,639z"/>
		<path class="st3" d="M935.8,644.8l-8.1,18l-5.2-2.3l8.1-18l-4.9-2.2l2-4.3l14.9,6.7l-2,4.3L935.8,644.8z"/>
		<path class="st3" d="M950.6,666.1l-8.8-2.8l-3.2,3.8l-5.6-1.8l16.8-20.3l4.9,1.6l1.8,26.2l-5.6-1.8L950.6,666.1z M950.5,661.5
			l-0.4-8.7l-5.4,6.9L950.5,661.5z"/>
		<path class="st3" d="M973.1,650.9c3.2,0.5,6.5,1.5,9,4.8c1.8,2.4,2.7,5.4,2.1,9.2c-0.6,3.8-2.3,6.4-4.6,8
			c-3.9,2.8-8.1,2.4-10.1,2.1l-7.8-1.2l3.8-24.2L973.1,650.9z M967.9,670l1.5,0.2c1.2,0.2,3.7,0.5,5.8-0.8c1.5-0.9,2.9-2.8,3.3-5.5
			c0.4-2.6-0.4-4.4-1.2-5.5c-1.5-2.1-3.8-2.7-5.5-3l-1.5-0.2L967.9,670z"/>
		<path class="st3" d="M997.6,657.9l-0.6,19.7l-5.6-0.2l0.6-19.7l-5.3-0.2l0.1-4.8l16.3,0.5l-0.1,4.8L997.6,657.9z"/>
		<path class="st3" d="M1030.1,670.5l-9.2,1.3l-1.2,4.8l-5.8,0.8l6.3-25.6l5.1-0.7l13,22.8l-5.8,0.8L1030.1,670.5z M1028,666.5
			l-4.2-7.7l-1.8,8.6L1028,666.5z"/>
		<path class="st3" d="M1043.6,672.8l-7.4-23.3l4.7-1.5l17.4,11l-4.8-15l5.4-1.7l7.4,23.3l-4.7,1.5l-17.4-11.1l4.8,15.1
			L1043.6,672.8z"/>
		<path class="st3" d="M1076.6,633.4c2.8-1.6,6-2.9,10-1.9c2.9,0.7,5.5,2.5,7.4,5.8c1.9,3.3,2.2,6.4,1.4,9.2c-1.2,4.6-4.8,7-6.5,8
			l-6.9,3.9l-12.2-21.2L1076.6,633.4z M1084.6,651.5l1.3-0.7c1-0.6,3.2-2,4-4.2c0.6-1.6,0.5-4-0.9-6.3c-1.3-2.3-3.1-3.2-4.4-3.6
			c-2.5-0.7-4.7,0.3-6.2,1.1l-1.3,0.7L1084.6,651.5z"/>
		<path class="st3" d="M1104.3,620.3l-6.5,5l2.9,3.8l6.2-4.7l2.9,3.8l-6.2,4.7l3.3,4.3l6.5-5l2.9,3.8l-11,8.4l-14.8-19.5l11-8.4
			L1104.3,620.3z"/>
		<path class="st3" d="M1110.3,608.2c2.2-2.2,4.3-2.8,6-2.8c1.4,0,3.4,0.5,5.3,2.4c1.1,1.1,2.2,2.7,2.1,4.9c0,1.2-0.4,2.5-1.1,3.7
			l12.4,1.9l-4.9,4.8l-11.5-2.3l6.7,6.9l-4,3.9l-17.1-17.5L1110.3,608.2z M1115.9,618.2l0.9-0.9c0.7-0.7,1.7-1.8,1.7-3.1
			c0-0.6-0.2-1.5-1-2.3c-1-1-2-1.1-2.6-1c-1.1,0.1-2.2,1.1-2.8,1.6l-0.9,0.9L1115.9,618.2z"/>
		<path class="st3" d="M1136.4,586.2c-2.4,0.5-3.4,1.8-3.8,2.3c-0.4,0.6-0.9,1.5-0.7,2.4c0.1,0.5,0.4,1,0.9,1.4
			c0.5,0.3,0.9,0.4,1.4,0.3c0.8-0.2,1.5-0.7,2.9-1.7l1.6-1.1c0.9-0.6,2.2-1.4,3.5-1.6c1.9-0.4,3.6,0.3,4.7,1.2
			c2.1,1.5,3.3,3.5,3.7,5.3c0.6,3.1-1.1,5.8-2,7.1c-1,1.4-2.1,2.5-3.7,3.3c-1.2,0.7-3,1.2-4.3,1.4l-1.6-4.7c0.9-0.1,2.1-0.5,2.8-0.8
			c1-0.4,1.8-1.1,2.5-2c0.4-0.6,0.9-1.5,0.8-2.6c-0.1-0.6-0.4-1.3-1.1-1.9c-0.7-0.5-1.3-0.5-1.9-0.3c-0.8,0.2-2.2,1.1-2.8,1.5
			l-1.7,1.2c-1,0.7-2.2,1.5-3.6,1.6c-1.9,0.3-3.4-0.6-4.3-1.3c-1.8-1.3-2.9-2.9-3.2-4.9c-0.4-2.4,0.4-4.4,1.7-6.2
			c1-1.4,2.8-3.4,6.2-4.5L1136.4,586.2z"/>
		<path class="st3" d="M1159,574.8l-4.4,8.2l3.2,3.8l-2.8,5.2l-17-20.2l2.4-4.6l26.1,3l-2.8,5.2L1159,574.8z M1154.5,574.1l-8.7-1.2
			l5.8,6.6L1154.5,574.1z"/>
		<path class="st3" d="M1169,550.3l-3.1,8.7l3.7,3.3l-2,5.5l-19.8-17.5l1.7-4.9l26.3-0.9l-2,5.5L1169,550.3z M1164.4,550.3l-8.8,0.1
			l6.7,5.6L1164.4,550.3z"/>
		<path class="st3" d="M1154.1,529.2l19.3,4.2l1.6-7.4l4.7,1l-2.8,12.9l-23.9-5.2L1154.1,529.2z"/>
		<path class="st3" d="M1162.3,506.3l-0.9,8.1l4.7,0.5l0.9-7.7l4.7,0.5l-0.9,7.7l5.4,0.6l0.9-8.1l4.7,0.5l-1.5,13.7l-24.3-2.7
			l1.5-13.7L1162.3,506.3z"/>
	</g>
	<path class="st3" d="M1070.1,392.7v76.6l-35.1-35.1v-76.6l-35.1-35.1l-35.1,35.1v76.6l-35.1,35.1v-76.6h-58.5v108.5h0.1
		c1.9,69.4,58.8,125,128.6,125s126.7-55.6,128.6-125h0.1V392.7H1070.1z M1038.3,547.2l-21.2,21.2c-0.3,0.4-0.6,0.7-1,1.1
		c-4.2,4.2-9.6,6.4-15,6.6c-0.4,0-0.7,0-1.1,0c-5.8,0-11.6-2.2-16.1-6.7c-0.4-0.4-0.7-0.7-1-1.1l-21.2-21.2
		c-8.9-8.9-8.9-23.3,0-32.1c8.9-8.9,23.3-8.9,32.1,0l6.1,6.1l6.1-6.1c8.9-8.9,23.3-8.9,32.1,0C1047.1,524,1047.1,538.4,1038.3,547.2
		z"/>
</g>
</svg>
