<svg id="Ebene_1" data-name="Ebene 1" xmlns="http://www.w3.org/2000/svg" viewBox="0 0 1080 1080"><defs><style>.cls-1{fill:#3c0804;}.cls-2{fill:#e36252;}</style></defs><rect class="cls-1" x="0.26" y="-0.03" width="1080" height="1080" transform="translate(0.03 1080.26) rotate(-90)"/><path class="cls-2" d="M794.09,670.71,761.84,519.33H628.11v6.78h74.82l16.73,74.76C730.3,652.13,771,611.1,786.2,666.21l1.18,5.52C788.71,682,784.86,693,776,704.48c-34.32,44.29-121,72.67-191.74,81.14-9.89,1.19-20,2.06-30,2.59a40.42,40.42,0,0,1-35.21-16.73q-9.37-13.38-19-27.19c-20.74-43.17,36.62-35.82,3.06-85L405.4,515c-34.77-50.92-51,14.64-92.7-42.33l-.18-.25c-23.6-34.51-31.89-64.45-24.65-89,6.45-21.85,25.52-39.55,56.67-52.6,119.21-49.95,279.73-64.53,343.5-31.2,15.66,8.19,25,18.88,27.77,31.78,0,.07,0,.14,0,.2,1.11,33.43-47.56,24.48-40.93,56.45l7.3,33.85,52.15.07,0,.09.46-.09h6.57l-.47-1.74c-1-5.12-9.63-48.76-18.51-90.25-3.2-15-13.72-27.2-31.26-36.37-32.42-17-87.76-22.78-155.81-16.41-65.77,6.14-136.29,23.41-193.46,47.36-33.11,13.88-53.49,33-60.54,56.93-7.85,26.59.74,58.46,25.55,94.74,19.73,28.85,122.41,178.87,206.57,299.09a47.23,47.23,0,0,0,38.58,19.69c.85,0,1.7,0,2.56-.07,10.14-.54,20.36-1.43,30.4-2.63,88-10.54,165.05-43.41,196.29-83.73C791.42,695.6,795.72,682.83,794.09,670.71Z" transform="translate(-0.26 0.03)"/></svg>