<svg id="Ebene_1" data-name="Ebene 1" xmlns="http://www.w3.org/2000/svg" viewBox="0 0 1080 1080"><defs><style>.cls-1{fill:#e36252;}.cls-2{fill:#3c0804;}</style></defs><rect class="cls-1" x="0.26" y="-0.03" width="1080" height="1080" transform="translate(0.03 1080.26) rotate(-90)"/><path class="cls-2" d="M616.34,788.7l-358.71.17L423.91,634.26c50.71-43.53,55.65,19.43,104.73-26l130.53-121c47.41-43.92-15.84-53,35-104.31l106.23-98.78L392.73,337.42l.89,6.82h0l6.74,52,64.15-8.33c46.87-6.08,12.76-50.06,61.89-61L780,293.79l-539.85,502,547.12-.26v-6.83h0V736.14H704.88C644.59,736.14,680.73,784.35,616.34,788.7Z" transform="translate(-0.26 0.03)"/></svg>