<svg id="Ebene_1" data-name="Ebene 1" xmlns="http://www.w3.org/2000/svg" viewBox="0 0 1080 1080"><defs><style>.cls-1{fill:#e36252;}.cls-2{fill:#dbbcdb;}</style></defs><rect class="cls-1" x="0.26" y="-0.03" width="1080" height="1080" transform="translate(0.03 1080.26) rotate(-90)"/><path class="cls-2" d="M818.34,709.49c-1-1.56-2.07-3.18-3.16-4.89C799,679.39,545.88,296.69,543.32,292.83l-2.87-4.34-2.87,4.34C535,296.69,281.51,680,265.34,705.16c-1.25,1.94-2.43,3.77-3.57,5.51-14.12,21.72-20,30.72-22.07,80.49l6.88.29c2-47.89,7.57-56.42,21-77,1.14-1.75,2.33-3.59,3.58-5.54,1.39-2.17,4.55-7,9.14-14,44.26-55.15,58.56,4.74,104-63.77l15-22.63H541.8a42.57,42.57,0,0,0,35.65-19.19L654.17,473c69.76,105.56,146.56,221.85,155.21,235.35,1.1,1.72,2.16,3.35,3.18,4.91,13.67,21.11,19.33,29.85,21.38,78.22l6.88-.29C838.69,740.91,832.73,731.71,818.34,709.49ZM403.81,601.61,511,440c44.43-67-20.76-52.34,18.5-122.4l11-16.62,80,120.92-50,74.32c-28.37,41.31,22.2,44.48,3.1,86.61l-1.77,2.69a35.74,35.74,0,0,1-29.91,16.1Z" transform="translate(-0.26 0.03)"/></svg>