<svg id="Ebene_1" data-name="Ebene 1" xmlns="http://www.w3.org/2000/svg" viewBox="0 0 1080 1080"><defs><style>.cls-1{fill:#3c0804;}.cls-2{fill:#dbbcdb;}</style></defs><rect class="cls-1" x="0.26" y="-0.03" width="1080" height="1080" transform="translate(0.03 1080.26) rotate(-90)"/><path class="cls-2" d="M950.37,274.56C920.7,329,696.67,740.72,668.87,791.82L655.69,771.9c-30.7-56.19,30.52-51.08-7.93-109.68L590.84,575.5C653.36,458.82,722.8,329.59,751.23,278L745,274.54c-28.16,51.14-96.54,178.38-158.6,294.18L542.5,501.84c-36.75-56-55.84,1.36-97.58-50.33-3.54-5.51-6.25-9.76-7.95-12.51-17.29-27.92-32.43-41.43-47.66-42.52-19.92-1.45-36.06,17.84-56.49,42.23-5.46,6.52-11.08,13.21-17.09,19.9L276.4,398.68c-53.15-81-63-6.79-122.57-87.91l-24-36.47-6,3.92L469.12,803l2.82-5.28c.91-1.7,38.28-71.69,86-160.87,55.1,83.56,107.18,162.25,108.23,163.83l3.27,4.94,2.82-5.2S925,336.06,956.63,278ZM468.48,789.09l-11.1-16.87c-47.32-80.56,24-61.25-31.12-145.2L319.77,464.75c6.56-7.23,12.64-14.45,18.51-21.46,19.13-22.84,34.28-40.84,50.52-39.71,12.58.9,26.35,13.71,42.11,39.17,11.47,18.52,67.89,104.37,122.6,187.35C512.15,707.34,478.25,770.8,468.48,789.09Z" transform="translate(-0.26 0.03)"/></svg>