<svg id="Ebene_1" data-name="Ebene 1" xmlns="http://www.w3.org/2000/svg" viewBox="0 0 1080 1080"><defs><style>.cls-1{fill:#3c0804;}.cls-2{fill:#dbbcdb;}</style></defs><rect class="cls-1" x="0.26" y="-0.03" width="1080" height="1080" transform="translate(0.03 1080.26) rotate(-90)"/><path class="cls-2" d="M736.38,345.82c-13-2.5-318.44-61.37-356-61.37-13.28,0-23.17,3.71-29.39,11-8.15,9.56-6.94,21.87-6.67,23.94l3.8,383.27a136.57,136.57,0,0,0,4.2,35.58c6.47,25.26,19.72,43,38.3,51.4a70.09,70.09,0,0,0,29.12,5.84c58.71,0,148.73-57.87,268.37-172.64l-4.57-4.77.09-.09-35.09-39.1-43.12,38.69C573,646.72,627.13,665,590.35,700.29,515.9,760,439.62,804.11,393.52,783.38,353.1,765.21,355,703.55,355,702.76v-.55c6.53-61.38,51.58-27,50.84-91.71l-1.54-134.86H621.39v-6.88H404.26l-.53-46.08c-.76-67-44.9-32.76-52.34-89.07l-.14-14.51-.05-.51c0-.11-1.64-10.81,5.07-18.67,4.85-5.69,13-8.58,24.15-8.58,17.78,0,100.12,14.09,181,28.76,31.53,8.34,4.9,54.48,33.1,59.54l77.23,13.87c28.06,5,21.31-43.17,47.39-44l15.94,3.05Z" transform="translate(-0.26 0.03)"/></svg>