<svg id="Ebene_1" data-name="Ebene 1" xmlns="http://www.w3.org/2000/svg" viewBox="0 0 1080 1080"><defs><style>.cls-1{fill:#dbbcdb;}.cls-2{fill:#3c0804;}</style></defs><rect class="cls-1" x="0.26" y="-0.03" width="1080" height="1080" transform="translate(0.03 1080.26) rotate(-90)"/><path class="cls-2" d="M653.43,538.48C698,536.9,773.55,511.36,773.55,425.69c0-19.83-8.18-38-24.32-53.87C710.91,334,628.45,308.08,504.15,294.65A1633.94,1633.94,0,0,0,329,285.74l.1,6.89h0V790.79H336V538.49l20.39,0c4.28,10.74,28.16,69,65.45,126.5,55.56,85.73,112.78,129.2,170.07,129.2,142.85,0,145.67,0,145.72,0l-.07-6.58h0V735.09H665.46c-51.68,0-22.42,46.23-74.1,52.24-121.56-.61-214.11-215.81-227.58-248.79,46,.07,132.24.2,198.86.2C610.42,538.74,648.08,538.67,653.43,538.48Zm-3.64-6.81M336,466.07c1.77-65.24,48.6-27.1,48.6-91.05V293.47c97,3.2,293.5,17.86,359.84,83.26,14.77,14.56,22.26,31,22.26,49,0,37.75-15,66.4-44.63,85.15-22.59,14.31-50.37,20.11-68.84,20.76h-.4c-54.38-1.48-22.62-45.45-75.57-45.45H437.66c-48.84,0-21.33,40.15-69.9,45.5l-31.8,0Z" transform="translate(-0.26 0.03)"/></svg>