<svg id="Ebene_1" data-name="Ebene 1" xmlns="http://www.w3.org/2000/svg" viewBox="0 0 1080 1080"><defs><style>.cls-1{fill:#dbbcdb;}.cls-2{fill:#3c0804;}</style></defs><rect class="cls-1" x="0.26" y="-0.03" width="1080" height="1080" transform="translate(0.03 1080.26) rotate(-90)"/><path class="cls-2" d="M742.09,795.49l-1.52-511.13-6.85,0,.66,222.27-266.21-.93h-.28a42.4,42.4,0,0,0-35.33,18.87l-36.2,54.12.39-131.3c.2-67-44.09-36.83-51.3-100.68l-.17-62.37-6.85,0,1.37,510,6.85,0-.18-68.61c10.51-44.92,49.5-17.95,49.7-83.26l.15-51.43,41.93-62.7a35.59,35.59,0,0,1,29.65-15.83h3.37c45.51,7.48,20.1,51.12,70,50.51l193.26-.26.7,232.68Z" transform="translate(-0.26 0.03)"/></svg>