<svg id="Ebene_1" data-name="Ebene 1" xmlns="http://www.w3.org/2000/svg" viewBox="0 0 1080 1080"><defs><style>.cls-1{fill:#3c0904;}.cls-2{fill:#dbbcdb;}</style></defs><rect class="cls-1" width="1080" height="1080"/><path class="cls-2" d="M157.57,563.67h0l21.83,2.22,3-30c2.18-21.48-18.27-11.26-18.58-33,3.63-33.84,8-70.92,10.64-79.87,1.55-5.29,4.06-8.75,7.45-10.28,4.67-2.1,9.62.17,9.66.19l.1,0,6.26,1.91c22.65,9.75,3.17,23.43,30.59,31.82l76.54,23.43c26.85,8.22,17.27-14.94,44.92-9.07l33.91,10.3.83-2.75-192-58.33c-.87-.38-6.4-2.65-11.94-.17-4.21,1.88-7.26,6-9.06,12.1-5.16,17.55-16.42,136.12-16.9,141.16Z" transform="translate(0 0.03)"/><path class="cls-2" d="M427.59,186l1.32,2c6.75,10.53,112.49,170.4,113.56,172l1.2,1.82,1.2-1.82c1.07-1.61,107-161.71,113.72-172.24l1.49-2.3c5.9-9.08,8.35-12.84,9.22-33.63l-2.87-.12c-.85,20-3.16,23.57-8.76,32.18-.48.73-1,1.5-1.5,2.32s-1.9,2.92-3.81,5.84c-18.49,23-24.46-2-43.44,26.64l-6.26,9.45H543.11a17.8,17.8,0,0,0-14.9,8l-32,48.59C467,240.71,435,192.14,431.33,186.5c-.46-.72-.9-1.4-1.33-2.05-5.71-8.82-8.07-12.47-8.93-32.68l-2.87.12C419.09,172.88,421.57,176.73,427.59,186Zm173.16,45.06L556,298.59c-18.56,28,8.67,21.86-7.73,51.13-2,3.08-3.61,5.45-4.59,6.94l-33.4-50.51,20.9-31c11.85-17.25-9.28-18.58-1.3-36.17l.74-1.13a14.94,14.94,0,0,1,12.5-6.73Z" transform="translate(0 0.03)"/><path class="cls-2" d="M713.22,217.14l-35.87,54.92,39.95,40.21,2-2L697,287.75l17.47-27.37c12.24-18.51-12.24-18.47-.23-39.53l1.31-2c2.67-3.45,7.13-5.59,13.25-6.35,23.57-2.91,58,14.68,81.68,33.4,3.31,2.62,6.58,5.39,9.73,8.23a17.17,17.17,0,0,1,5.49,15.59c-.82,4.54-1.65,9.16-2.5,13.83-6.78,19.14-21.71-.3-26.46,24.47L782.55,380.5c-4.93,25.67,19.64,11,15,40.52l0,.13c-3.32,17.4-9.85,28.84-19.39,34-8.49,4.59-19.51,4.14-32.74-1.32-50.63-20.92-103-64.82-112-93.95-2.22-7.15-1.79-13.16,1.26-17.84l0-.07c9.72-10.32,21.56,7,29.19-4.56l8-12.31-15.56-15.7,0,0-.16-.11-2-2-.39.66c-1.23,1.84-11.78,17.47-21.6,32.53-3.54,5.43-4.08,12.25-1.59,20.27,4.59,14.8,19.37,33.18,41.61,51.74,21.5,17.94,47.76,34,72,44,14.06,5.81,25.91,6.21,35.2,1.19,10.34-5.58,17.35-17.69,20.85-36,2.78-14.55,17.2-90.24,28.2-151.46a20,20,0,0,0-5.61-17.48q-.37-.39-.78-.75c-3.19-2.89-6.52-5.7-9.87-8.35-29.47-23.31-62.37-36.66-83.82-34C721.5,210.51,716.38,213,713.22,217.14Z" transform="translate(0 0.03)"/><path class="cls-2" d="M414.58,928.16,601.76,827.1l-1.36-2.53h0L590,805.31l-26.49,14.3C544.29,830,564.88,841.3,546,853.93l-125.56,67.8L429,901.68c11.66-22.42,23.94-1,34.63-26l29.14-68.39c10-23.48-12.37-18.21-5.88-41.42L525.14,676,338,777.09l1.36,2.53L362,767.35c25.44-11.69,20.33,13.69,46.5-.38l70.95-38.13c25.54-13.73.37-23.32,27.35-39.66l12.44-6.72Z" transform="translate(0 0.03)"/><path class="cls-2" d="M312.21,409.68c5.09-2.16,124.68-53,137.68-61.74,4.61-3.09,7.17-6.68,7.63-10.66a13.53,13.53,0,0,0-3.27-9.85l-90.69-132a56.82,56.82,0,0,0-9.76-11.35c-8.13-7.25-16.87-10.32-25.26-8.89A29.37,29.37,0,0,0,317.09,180C296.74,193.7,279,234.75,264.33,302.42l2.7.59v.05l21.28,5.37L294.22,285c4.46-17.68-18.56-11.38-14.05-32.2,11.87-38.06,28-71.13,48.84-74.69,18.25-3.13,32,18.69,32.14,19l.13.19c12,22.79-11.59,21.38,3.76,43.64l32,46.38L321.8,337.87l1.6,2.39,75.26-50.63,10.92,15.84c15.88,23,23.21.89,38.91,18.67l3.44,5,.13.17a10.62,10.62,0,0,1,2.6,7.65c-.36,3.11-2.5,6-6.37,8.61-6.16,4.14-38,18.46-69.44,32.23-12.87,4.47-14.4-17.73-25.35-12.91l-30,13.2c-10.9,4.8,2.68,19.93-6.17,26.29L311.09,407Z" transform="translate(0 0.03)"/><path class="cls-2" d="M871.29,679.59C858.8,700.05,764.56,854.68,752.86,873.88l-4.71-7.94c-10.78-22.27,12.75-19.14-1-42.48l-20.33-34.54c26.34-43.85,55.58-92.4,67.53-111.78L792,675.7c-11.84,19.2-40.64,67-66.78,110.52l-15.67-26.64c-13.12-22.31-21.57-.54-36.7-21.27-1.26-2.2-2.23-3.89-2.83-5-6.14-11.1-11.73-16.6-17.59-17.31-7.66-.94-14.25,6.2-22.6,15.23-2.23,2.41-4.52,4.89-7,7.35l-14-23.87c-19-32.26-24.19-3.81-45.64-36.24L554.64,664l-2.37,1.4,123.29,209,1.19-2c.39-.64,16.13-26.94,36.25-60.45,19.68,33.29,38.29,64.64,38.66,65.27l1.17,2,1.19-2S860.32,702.84,873.63,681ZM675.58,869l-4-6.72c-16.74-32,10.41-23.18-9.26-56.62l-38-64.64c2.67-2.67,5.15-5.34,7.55-7.93,7.82-8.45,14-15.11,20.25-14.37,4.84.59,9.91,5.79,15.51,15.91,4.08,7.37,24.22,41.57,43.76,74.62C694,838.31,679.7,862.15,675.58,869Z" transform="translate(0 0.03)"/><path class="cls-2" d="M887.45,508.92,920.73,655,842.36,601.6c-22.43-16.62,2.76-24.47-20.31-40.25l-61.35-42c-22.29-15.25-20.11,11.36-45.74-4.6l-50.07-34.13,59.44,161.14,2.69-1h0l20.55-7.56-9.32-25.36c-6.82-18.53-21.58-.56-30.58-19.56l-37-100.22L925.16,661.52,874.4,438.68l-2.78.63h0l-21.4,4.86,7.62,33.55C863.42,502.28,879.72,483.09,887.45,508.92Z" transform="translate(0 0.03)"/><path class="cls-2" d="M324.05,690.34c9.49,16,33.94,38.66,65.37,21.55,7.28-4,12.3-10.58,14.91-19.68,6.21-21.6-.72-57-20.61-105.33A681.91,681.91,0,0,0,352,520.82l-2.5,1.41h0L166.72,621.69l1.37,2.53,92.58-50.37c.83,1.52,2.22,4.1,4.06,7.49a328.77,328.77,0,0,0-33.35,49.27c-20.37,37.5-24.9,67.17-13.46,88.19,28.52,52.42,29.09,53.45,29.1,53.47l2.4-1.34h0l19.27-10.49L254.31,734c-10.31-19-21.44,1-34-16.76-24-44.72,36.44-121.65,45.86-133.17,9.14,16.87,26.33,48.56,39.63,73C315.37,674.6,322.92,688.41,324.05,690.34ZM307.43,654l18.4,33.65C323.45,683.38,316.21,670.13,307.43,654Zm-20.19-94.6c24.29-12.38,19.65,12.42,43.12-.35l29.92-16.28c18.2,36.25,52,111.26,41.29,148.66-2.4,8.33-6.95,14.37-13.52,18-13.85,7.53-27.36,7.74-40.16.62-9.76-5.43-17.43-14.47-21.36-21.12l-.08-.14c-10.32-20.25,12.16-17.37,1.59-36.8l-27.87-51.21c-9.75-17.92-19,.19-30.64-16.57-3-5.51-5.23-9.64-6.33-11.68Z" transform="translate(0 0.03)"/></svg>