<?xml version="1.0" encoding="utf-8"?>
<!-- Generator: Adobe Illustrator 24.3.0, SVG Export Plug-In . SVG Version: 6.00 Build 0)  -->
<svg version="1.1" id="Ebene_1" xmlns="http://www.w3.org/2000/svg" xmlns:xlink="http://www.w3.org/1999/xlink" x="0px" y="0px"
	 viewBox="0 0 1116 1116" style="enable-background:new 0 0 1116 1116;" xml:space="preserve">
<style type="text/css">
	.st0{display:none;fill:none;stroke:#1C1C1C;stroke-width:50;stroke-miterlimit:10;}
	.st1{fill:none;stroke:#1C1C1C;stroke-width:60;stroke-miterlimit:10;}
</style>
<path class="st0" d="M558,25C263.6,25,25,263.6,25,558s238.6,533,533,533s533-238.6,533-533S852.4,25,558,25z M861.6,665.1
	l-100-99.6L564,763.1L369.2,568.4l-99,99L166.4,565.5l200.7-200.6L564,561.7l196.9-196.8l201,199.8L861.6,665.1z"/>
<polygon class="st1" points="941.6,692.3 814.7,565.9 564,816.6 316.8,569.6 191.1,695.2 59.4,565.9 314.1,311.4 564,561.1 
	813.8,311.4 1068.9,564.9 "/>
</svg>
