<?xml version="1.0" encoding="utf-8"?>
<!-- Generator: Adobe Illustrator 24.3.0, SVG Export Plug-In . SVG Version: 6.00 Build 0)  -->
<svg version="1.1" id="Ebene_1" xmlns="http://www.w3.org/2000/svg" xmlns:xlink="http://www.w3.org/1999/xlink" x="0px" y="0px"
	 viewBox="0 0 1066 1066" style="enable-background:new 0 0 1066 1066;" xml:space="preserve">
<style type="text/css">
	.st0{fill:#007CE5;}
	.st1{fill:#FFFFFF;}
</style>
<path class="st0" d="M533,1066c294.4,0,533-238.6,533-533C1066,238.6,827.4,0,533,0S0,238.6,0,533C0,827.4,238.6,1066,533,1066"/>
<polygon class="st1" points="936.3,540.3 936.9,539.7 835.3,438.2 834.8,438.8 735.9,339.9 539,536.7 342.1,339.9 141.4,540.5 
	144.1,540.5 143.7,540.9 245.2,642.4 344.2,543.4 539,738.1 736.6,540.5 737,540.5 836.6,640.1 936.1,540.5 936.5,540.5 "/>
</svg>
